<svg preserveAspectRatio="none" width="100%" height="100%" overflow="visible" style="display: block;" viewBox="0 0 19 23" fill="none" xmlns="http://www.w3.org/2000/svg">
<path id="Vector" d="M12.1822 12.045C11.3242 13.0308 10.3228 13.8772 9.21261 14.5546C8.34347 13.0154 7.1517 11.8777 6.19697 10.4322C5.74238 9.74384 5.54395 8.91341 5.6373 8.08984C5.71631 7.52768 6.03894 6.79822 6.67104 6.79822C6.90338 6.8091 7.12873 6.88233 7.32419 7.01046C7.51964 7.13859 7.67822 7.31704 7.7838 7.52768C8.38353 8.30282 8.7678 9.22723 8.89656 10.2046C9.12603 9.45118 9.42818 8.72264 9.79862 8.02961C10.2 7.35268 10.815 6.83375 11.5435 6.55729C11.7663 6.48219 12.0027 6.45764 12.2359 6.48539C12.4691 6.51314 12.6935 6.59251 12.8933 6.71791C13.1827 6.9538 13.4091 7.25988 13.5517 7.60799C14.006 9.22084 13.2159 10.7534 12.1822 12.045ZM11.3854 0.179495C9.01127 -0.29149 6.54972 0.17238 4.49947 1.47713C2.44921 2.78188 0.963555 4.82996 0.34347 7.20645C-0.303884 9.57181 -0.0294235 12.0998 1.10979 14.2647C2.24901 16.4297 4.16532 18.0651 6.46034 18.831C7.17804 18.9917 7.17804 20.0423 6.69738 20.1227C6.45346 20.1375 6.21343 20.1918 5.98627 20.2833C5.7394 20.3244 5.50985 20.4382 5.32608 20.6107C5.14231 20.7832 5.01242 21.0068 4.95252 21.2537C4.86824 21.4685 4.86824 21.708 4.95252 21.9229C5.03154 22.0835 5.11055 22.3244 5.18956 22.4851C5.3272 22.6438 5.48691 22.7814 5.66363 22.8933C5.97057 22.9993 6.29846 23.0269 6.61837 22.9736C13.2949 22.3044 18.22 17.3989 18.9377 10.9274C19.4908 5.66721 16.3106 1.14319 11.3854 0.179495Z" fill="var(--fill-0, #091F48)"/>
</svg>
