<svg preserveAspectRatio="none" width="100%" height="100%" overflow="visible" style="display: block;" viewBox="0 0 151 90.8619" fill="none" xmlns="http://www.w3.org/2000/svg">
<g id="g4324">
<path id="path3442" d="M0.430069 19.3321L1.65737 85.9167L150.161 86.7337L150.57 19.7399L0.430069 19.3321Z" fill="var(--fill-0, white)" stroke="var(--stroke-0, black)" stroke-width="0.860138" stroke-linecap="round" stroke-linejoin="round"/>
<path id="path4236" d="M97.4319 9.22128L97.8081 11.8645L136.6 12.0533L136.56 8.84368L97.4319 9.22128Z" fill="var(--fill-0, #00CCCC)" stroke="var(--stroke-0, black)" stroke-width="0.860138" stroke-linecap="round" stroke-linejoin="round"/>
<path id="path4234" d="M13.0141 8.41403V11.8614H54.1134L53.7591 8.29515L13.0141 8.41403Z" fill="var(--fill-0, #00CCCC)" stroke="var(--stroke-0, black)" stroke-width="0.860138" stroke-linecap="round" stroke-linejoin="round"/>
<path id="path4212" d="M53.063 0.430069L53.3841 87.863L99.6255 88.2448L98.8908 0.65706L53.063 0.430069Z" fill="var(--fill-0, #00CCCC)" stroke="var(--stroke-0, black)" stroke-width="0.860138" stroke-linecap="round" stroke-linejoin="round"/>
<path id="path4220" d="M45.363 67.3428V90.4318L50.5647 90.4014L50.3558 67.2258L45.363 67.3428Z" fill="var(--fill-0, white)" stroke="var(--stroke-0, black)" stroke-width="0.860138" stroke-linecap="round" stroke-linejoin="round"/>
<path id="path4222" d="M101.859 66.5024L101.607 89.6315L106.851 89.5173L106.495 66.1124L101.859 66.5024Z" fill="var(--fill-0, white)" stroke="var(--stroke-0, black)" stroke-width="0.860138" stroke-linecap="round" stroke-linejoin="round"/>
<path id="path4214" d="M43.9363 56.0635V67.1187L108.542 67.3708L108.418 56.3227L43.9363 56.0635Z" fill="var(--fill-0, white)" stroke="var(--stroke-0, black)" stroke-width="0.860138" stroke-linecap="round" stroke-linejoin="round"/>
<path id="path4216" d="M62.6542 70.686L62.9064 87.5906L91.1057 88.1428L90.8496 70.8003L62.6542 70.686Z" fill="var(--fill-0, white)" stroke="var(--stroke-0, black)" stroke-width="0.43005" stroke-linecap="round" stroke-linejoin="round"/>
<g id="path4218">
<path d="M76.8417 70.9993L77.1481 87.8906Z" fill="var(--fill-0, white)"/>
<path d="M76.8417 70.9993L77.1481 87.8906" stroke="var(--stroke-0, black)" stroke-width="0.43005" stroke-linecap="round" stroke-linejoin="round"/>
</g>
<path id="path4228" d="M70.2656 11.4882V20.0472L79.9555 19.6906V11.4884L70.2656 11.4882Z" fill="var(--fill-0, white)" stroke="var(--stroke-0, black)" stroke-width="0.43005" stroke-linecap="round" stroke-linejoin="round"/>
<path id="path4258" d="M113.732 28.6062L113.48 36.4519H125.961V28.2497L113.732 28.6062Z" fill="var(--fill-0, white)" stroke="var(--stroke-0, black)" stroke-width="0.43005" stroke-linecap="round" stroke-linejoin="round"/>
<path id="path4260" d="M130.953 28.2486V36.0944H143.434V27.8922L130.953 28.2486Z" fill="var(--fill-0, white)" stroke="var(--stroke-0, black)" stroke-width="0.43005" stroke-linecap="round" stroke-linejoin="round"/>
<path id="path4262" d="M130.953 28.2486V36.0944H143.434V27.8922L130.953 28.2486Z" fill="var(--fill-0, white)" stroke="var(--stroke-0, black)" stroke-width="0.43005" stroke-linecap="round" stroke-linejoin="round"/>
<path id="path4264" d="M113.835 43.3319V51.4298H126.317V43.2276L113.835 43.3319Z" fill="var(--fill-0, white)" stroke="var(--stroke-0, black)" stroke-width="0.43005" stroke-linecap="round" stroke-linejoin="round"/>
<path id="path4266" d="M130.953 43.225V51.0707H143.434V42.8686L130.953 43.225Z" fill="var(--fill-0, white)" stroke="var(--stroke-0, black)" stroke-width="0.43005" stroke-linecap="round" stroke-linejoin="round"/>
<path id="path4268" d="M114.089 55.916L113.837 64.266H126.319V56.0639L114.089 55.916Z" fill="var(--fill-0, white)" stroke="var(--stroke-0, black)" stroke-width="0.43005" stroke-linecap="round" stroke-linejoin="round"/>
<path id="path4270" d="M130.953 56.0635V63.9092H143.434V55.7071L130.953 56.0635Z" fill="var(--fill-0, white)" stroke="var(--stroke-0, black)" stroke-width="0.43005" stroke-linecap="round" stroke-linejoin="round"/>
<path id="path4272" d="M113.123 69.6171V77.4628H125.605V69.2606L113.123 69.6171Z" fill="var(--fill-0, white)" stroke="var(--stroke-0, black)" stroke-width="0.43005" stroke-linecap="round" stroke-linejoin="round"/>
<path id="path4274" d="M130.242 69.2595V77.1053H142.723V68.9031L130.242 69.2595Z" fill="var(--fill-0, white)" stroke="var(--stroke-0, black)" stroke-width="0.43005" stroke-linecap="round" stroke-linejoin="round"/>
<path id="path4284" d="M9.34299 25.7532V33.5989H21.8247V25.3967L9.34299 25.7532Z" fill="var(--fill-0, white)" stroke="var(--stroke-0, black)" stroke-width="0.43005" stroke-linecap="round" stroke-linejoin="round"/>
<path id="path4286" d="M26.8186 25.3956V33.2414H39.3002V25.0392L26.8186 25.3956Z" fill="var(--fill-0, white)" stroke="var(--stroke-0, black)" stroke-width="0.43005" stroke-linecap="round" stroke-linejoin="round"/>
<path id="path4288" d="M27.0728 25.1413L26.8207 33.2392H39.3023V25.037L27.0728 25.1413Z" fill="var(--fill-0, white)" stroke="var(--stroke-0, black)" stroke-width="0.43005" stroke-linecap="round" stroke-linejoin="round"/>
<path id="path4290" d="M9.7004 40.7296V48.5753H22.1821V40.3731L9.7004 40.7296Z" fill="var(--fill-0, white)" stroke="var(--stroke-0, black)" stroke-width="0.43005" stroke-linecap="round" stroke-linejoin="round"/>
<path id="path4292" d="M26.8186 40.372V48.2177H39.3002V40.0156L26.8186 40.372Z" fill="var(--fill-0, white)" stroke="var(--stroke-0, black)" stroke-width="0.43005" stroke-linecap="round" stroke-linejoin="round"/>
<path id="path4294" d="M9.7004 53.568V61.4138H22.1821V53.2116L9.7004 53.568Z" fill="var(--fill-0, white)" stroke="var(--stroke-0, black)" stroke-width="0.43005" stroke-linecap="round" stroke-linejoin="round"/>
<path id="path4296" d="M26.8186 53.2105V61.0562H39.3002V52.854L26.8186 53.2105Z" fill="var(--fill-0, white)" stroke="var(--stroke-0, black)" stroke-width="0.43005" stroke-linecap="round" stroke-linejoin="round"/>
<path id="path4298" d="M8.98894 66.7641V74.6098H21.4706V66.4076L8.98894 66.7641Z" fill="var(--fill-0, white)" stroke="var(--stroke-0, black)" stroke-width="0.43005" stroke-linecap="round" stroke-linejoin="round"/>
<path id="path4300" d="M26.1071 66.4065V74.2523H38.5888V66.0501L26.1071 66.4065Z" fill="var(--fill-0, white)" stroke="var(--stroke-0, black)" stroke-width="0.43005" stroke-linecap="round" stroke-linejoin="round"/>
<path id="path4304" d="M16.8294 12.0927L16.5772 19.1533H18.8468V12.0927H16.8294Z" fill="var(--fill-0, white)" stroke="var(--stroke-0, black)" stroke-width="0.43005" stroke-linecap="round" stroke-linejoin="round"/>
<path id="path4306" d="M28.1787 12.0927L27.9265 19.1533H30.196V12.0927H28.1787Z" fill="var(--fill-0, white)" stroke="var(--stroke-0, black)" stroke-width="0.43005" stroke-linecap="round" stroke-linejoin="round"/>
<path id="path4308" d="M28.1787 12.0927L27.9265 19.1533H30.196V12.0927H28.1787Z" fill="var(--fill-0, white)" stroke="var(--stroke-0, black)" stroke-width="0.43005" stroke-linecap="round" stroke-linejoin="round"/>
<path id="path4310" d="M41.5405 12.3434L41.2883 19.404H43.5578V12.3434H41.5405Z" fill="var(--fill-0, white)" stroke="var(--stroke-0, black)" stroke-width="0.43005" stroke-linecap="round" stroke-linejoin="round"/>
<path id="path4312" d="M105.088 12.3434L104.836 19.404H107.105V12.3434H105.088Z" fill="var(--fill-0, white)" stroke="var(--stroke-0, black)" stroke-width="0.43005" stroke-linecap="round" stroke-linejoin="round"/>
<path id="path4314" d="M116.187 12.3434L115.934 19.404H118.204V12.3434H116.187Z" fill="var(--fill-0, white)" stroke="var(--stroke-0, black)" stroke-width="0.43005" stroke-linecap="round" stroke-linejoin="round"/>
<path id="path4316" d="M127.282 12.3434L127.03 19.404H129.299V12.3434H127.282Z" fill="var(--fill-0, white)" stroke="var(--stroke-0, black)" stroke-width="0.43005" stroke-linecap="round" stroke-linejoin="round"/>
<path id="path4318" d="M70.2656 26.1107V34.6697L80.1339 34.848L79.9556 26.1106L70.2656 26.1107Z" fill="var(--fill-0, white)" stroke="var(--stroke-0, black)" stroke-width="0.43005" stroke-linecap="round" stroke-linejoin="round"/>
<path id="path4320" d="M70.2656 39.2257V47.7846L79.9555 47.9324V39.2256L70.2656 39.2257Z" fill="var(--fill-0, white)" stroke="var(--stroke-0, black)" stroke-width="0.43005" stroke-linecap="round" stroke-linejoin="round"/>
</g>
</svg>
