<svg width="141" height="127" viewBox="0 0 141 127" fill="none" xmlns="http://www.w3.org/2000/svg">
<g clip-path="url(#clip0_10704_628)">
<path d="M90.6727 60.8608C81.2018 66.5008 69.6482 59.8555 70.1911 59.7399C88.0953 55.8468 89.6773 44.5513 89.6773 44.5513C86.1029 35.8178 76.3598 38.6293 76.3598 38.6293C76.0778 51.0232 61.3264 51.7212 61.3264 51.7212C60.3789 47.6999 60.4311 38.3107 60.4311 38.3107C55.96 35.1847 55.0547 36.5115 55.0547 36.5115C56.4647 24.1035 62.1428 20.1033 62.1428 20.1033C63.0889 19.2221 67.3175 17.241 69.4889 16.9844L69.5665 17.3285C69.5665 17.3285 67.3711 22.8105 71.5785 23.1715C75.119 23.4817 77.1311 19.1234 77.6796 17.7402C82.2832 19.1671 86.6768 22.3608 89.5997 27.7329C96.5144 40.4426 90.6727 60.8608 90.6727 60.8608Z" fill="#00CCCC"/>
<path d="M91.6945 55.5156L114.707 70.7436C119.17 73.6961 118.596 80.4162 113.702 82.5693L86.7707 94.4214C84.2662 95.5234 81.5202 95.9624 78.7969 95.6964C76.0736 95.4294 73.4647 94.4664 71.2213 92.9003L60.8789 85.6698" stroke="#091F48" stroke-width="0.59361" stroke-miterlimit="10"/>
<path d="M91.6968 60.4274L90.9227 59.9141L114.713 75.6526C119.176 78.6051 118.602 85.3252 113.708 87.4782L86.7773 99.3302C84.2727 100.432 81.5267 100.871 78.8034 100.605C76.0801 100.338 73.4713 99.3762 71.2278 97.8092L58.0781 88.4441" stroke="#091F48" stroke-width="0.59361" stroke-miterlimit="10"/>
<path d="M111.724 81.7303L86.9707 92.6254C84.6688 93.6378 82.1452 94.0408 79.6425 93.7958C77.1398 93.5508 74.7422 92.6662 72.6803 91.2266L63.1953 84.563C64.5013 83.5621 65.9646 82.7854 67.5254 82.2647C71.4353 80.9366 75.251 79.3458 78.9464 77.5031C81.7516 76.1154 84.2157 74.1253 86.1627 71.675C88.1097 69.2246 89.4915 66.3746 90.2095 63.3284C90.7058 61.2204 91.1415 59.0885 91.4982 56.9453L113.283 71.3456C117.383 74.0585 116.22 79.7535 111.724 81.7303Z" fill="#00CCCC"/>
<path d="M47.9415 113.304C47.9415 113.304 52.2815 111.505 53.1134 110.148C53.1134 110.148 53.2699 113.228 52.4577 114.28C51.6456 115.332 46.7924 118.112 46.5315 117.764C46.2707 117.416 47.9415 113.304 47.9415 113.304Z" fill="#00CCCC"/>
<path d="M34.5827 120.644C34.5827 120.644 35.3723 121.715 38.1739 120.644C40.9756 119.572 47.071 115.625 47.071 115.625C47.071 115.625 45.3706 120.191 44.7544 120.693C44.1382 121.195 32.4973 126.897 32.4973 126.897C32.4973 126.897 27.293 127.637 29.2543 123.936L34.5827 120.644Z" fill="#00CCCC"/>
<path d="M51.3351 60.9844C44.9196 63.4815 38.1304 69.3485 40.0833 85.5959L40.6261 89.8175" stroke="#091F48" stroke-width="0.59361" stroke-miterlimit="10"/>
<path d="M51.3242 50.3754C52.3732 48.878 53.3207 47.2592 53.9016 45.5165C54.4826 43.7737 54.5122 41.8857 54.6743 40.0527C55.1058 35.1375 55.7741 31.0724 57.6706 26.4942C59.3132 22.5321 64.275 17.4279 69.2114 16.9442L69.6556 16.9062" stroke="#091F48" stroke-width="0.59361" stroke-miterlimit="10"/>
<path d="M63.7335 60.6313C63.7096 60.5623 63.6856 60.4974 63.6602 60.4297" stroke="#091F48" stroke-width="0.59361" stroke-miterlimit="10"/>
<path d="M61.3244 51.4191C61.0819 49.9936 60.9014 48.6118 60.7604 47.3005C60.7608 47.2758 60.758 47.2512 60.7519 47.2272C60.0131 39.9051 60.7604 34.5781 60.7604 34.5781" stroke="#091F48" stroke-width="0.59361" stroke-miterlimit="10"/>
<path d="M78.5708 6.97541L77.4428 7.41541C77.4428 7.45061 77.4428 7.89051 77.3948 8.50671C77.3424 9.24261 77.2254 9.97251 77.0452 10.688C77.1453 10.2001 77.2905 9.04111 76.6532 8.23461C76.6433 8.21811 76.632 8.20251 76.6193 8.18801C76.1963 7.67901 75.6746 7.88071 75.2559 8.23031C74.9667 8.47501 74.7141 8.75991 74.5057 9.07631C74.5788 8.13441 74.4099 7.18941 74.0151 6.33111C73.7576 5.74551 73.4161 5.20071 73.0013 4.71381C73.64 6.91341 72.8208 8.35301 72.8208 8.35301C70.6565 8.86201 69.1548 8.75351 68.0353 8.56031C67.092 7.68041 67.4191 4.51221 67.4191 4.51221C66.4702 5.28771 66.6986 8.28821 66.6986 8.28821C66.5774 7.50521 66.5922 6.70721 66.7423 5.92921C66.2709 6.59581 65.9986 7.38261 65.9569 8.19791L65.94 8.18951C65.8746 8.17271 65.8101 8.15241 65.7468 8.12881C65.6307 8.06771 65.5181 7.99991 65.4098 7.92581L64.7852 7.50281C65.7285 2.69046 69.0265 -0.335404 74.1222 0.552896C74.4549 0.610226 74.7822 0.695116 75.1008 0.806696C78.458 2.55651 78.5708 6.97541 78.5708 6.97541Z" fill="#091F48"/>
<path d="M49.4939 53.8509L48.2094 49.9846C48.1809 49.8946 48.13 49.8133 48.0614 49.7484C47.9929 49.6836 47.9089 49.6372 47.8174 49.6138C47.8061 49.6138 47.7934 49.6138 47.7807 49.6053C47.7681 49.5969 47.7652 49.6053 47.7568 49.6053C47.7272 49.6034 47.6975 49.6034 47.6679 49.6053C47.5255 49.6058 47.3884 49.6602 47.2844 49.7576C47.1801 49.854 47.0968 49.9708 47.0398 50.1009C46.9828 50.231 46.9533 50.3714 46.9531 50.5134C46.9532 50.6245 46.9708 50.7349 47.0052 50.8405C47.2872 51.6569 47.7892 53.1304 48.0275 53.8015" fill="#00CCCC"/>
<path d="M49.2004 53.8447L47.8158 49.6076C47.8045 49.6076 47.7918 49.6076 47.7791 49.5991C47.7664 49.5907 47.7636 49.5991 47.7552 49.5991L47.029 49.4581C46.6413 49.3862 46.2535 49.3087 45.8658 49.2368C45.4005 49.1437 44.9323 49.0662 44.4685 48.9548C44.359 48.9238 44.2465 48.9049 44.1329 48.8984C43.9899 48.8979 43.8524 48.9531 43.7494 49.0521C43.6441 49.1483 43.5603 49.2655 43.5032 49.3962C43.4461 49.5269 43.4171 49.6681 43.418 49.8106C43.4173 49.9204 43.4349 50.0296 43.4702 50.1335C43.7818 51.0472 44.3754 52.7759 44.5643 53.3004L49.2004 53.8447Z" fill="#00CCCC"/>
<path d="M76.5778 34.5732C76.4368 36.1425 76.3635 38.0418 76.3141 40.4289C76.3141 45.5049 70.7023 49.7081 65.7152 50.6697L56.5699 52.7354C55.3615 52.9694 54.2913 52.2151 53.451 51.7145C52.5866 51.1999 51.7012 50.5865 51.0779 50.1311C50.1812 49.4755 48.4539 50.0028 48.8078 51.5665C48.8841 51.8638 49.028 52.1395 49.2283 52.3721C49.4286 52.6047 49.6799 52.7879 49.9626 52.9074C50.1218 52.9788 50.2858 53.0391 50.4533 53.0879C50.5157 53.1035 50.5712 53.1393 50.6112 53.1897C50.6511 53.2401 50.6733 53.3023 50.6743 53.3666C50.6752 53.4309 50.6549 53.4938 50.6165 53.5454C50.5781 53.5969 50.5237 53.6344 50.4618 53.6519C49.6694 53.9254 48.2185 54.0876 45.8779 53.2289C42.8788 52.1248 42.6461 58.969 46.7464 60.1604H46.7619C50.5393 61.3025 54.6044 61.1559 58.5086 60.9923C62.9422 60.8243 67.3539 60.2862 71.6978 59.3835C73.9073 58.9154 76.1774 58.429 78.1993 57.4293C81.682 55.7077 84.1918 53.7337 86.5789 50.6613C89.2579 47.2166 90.4014 42.6976 91.0472 38.4605C91.7861 33.613 90.7652 29.5197 88.1666 25.3475L88.0707 25.1953" stroke="#091F48" stroke-width="0.59361" stroke-miterlimit="10"/>
<path d="M49.4939 53.8509L48.2094 49.9846C48.1809 49.8946 48.13 49.8133 48.0614 49.7484C47.9929 49.6836 47.9089 49.6372 47.8174 49.6138C47.8061 49.6138 47.7934 49.6138 47.7807 49.6053C47.7681 49.5969 47.7652 49.6053 47.7568 49.6053C47.7272 49.6034 47.6975 49.6034 47.6679 49.6053C47.5255 49.6058 47.3884 49.6602 47.2844 49.7576C47.1801 49.854 47.0968 49.9708 47.0398 50.1009C46.9828 50.231 46.9533 50.3714 46.9531 50.5134C46.9532 50.6245 46.9708 50.7349 47.0052 50.8405C47.2872 51.6569 47.7892 53.1304 48.0275 53.8015" stroke="#091F48" stroke-width="0.59361" stroke-miterlimit="10"/>
<path d="M47.8158 49.6076C47.8045 49.6076 47.7918 49.6076 47.7791 49.5991C47.7664 49.5907 47.7636 49.5991 47.7552 49.5991L47.029 49.4581C46.6413 49.3862 46.2535 49.3087 45.8658 49.2368C45.4005 49.1437 44.9323 49.0662 44.4685 48.9548C44.359 48.9238 44.2465 48.9049 44.1329 48.8984C43.9899 48.8979 43.8524 48.9531 43.7494 49.0521C43.6441 49.1483 43.5603 49.2655 43.5032 49.3962C43.4461 49.5269 43.4171 49.6681 43.418 49.8106C43.4173 49.9204 43.4349 50.0296 43.4702 50.1335C43.7818 51.0472 44.3754 52.7759 44.5643 53.3004" stroke="#091F48" stroke-width="0.59361" stroke-miterlimit="10"/>
<path d="M65.5195 8.0625C65.5195 9.8955 65.8762 11.6482 66.756 13.2669C67.461 14.5669 68.496 15.8768 69.9765 16.3068C70.3046 16.4015 70.6445 16.4489 70.986 16.4478C73.4987 16.4365 73.8906 13.46 73.8906 13.46" stroke="#091F48" stroke-width="0.59361" stroke-miterlimit="10"/>
<path d="M77.3116 9.125V9.1334C77.1951 10.0429 76.995 10.9397 76.7137 11.8124C76.3777 12.8534 76.2984 13.9602 76.4825 15.0385L76.873 17.31C76.8908 17.4112 76.9368 17.5054 77.0056 17.5817C77.0744 17.658 77.1634 17.7134 77.2622 17.7415C82.2198 19.1811 86.6204 22.3578 89.1809 26.9445C92.3746 32.672 92.9569 39.5697 92.6989 45.9993C92.4719 51.573 91.5709 57.1143 90.292 62.5386C89.5102 65.8538 88.0061 68.9555 85.8871 71.6222C83.768 74.2889 81.0863 76.4549 78.0335 77.9654C74.0161 79.9714 69.8673 81.7026 65.6156 83.1471C63.3649 83.8925 61.3086 85.1301 59.5962 86.7698C57.8837 88.4096 56.5582 90.4103 55.716 92.6266L45.7247 119.194C45.3575 120.175 44.6333 120.981 43.6972 121.45L34.1233 126.26C32.9143 126.865 31.5352 127.04 30.2133 126.756C29.8706 126.682 29.5581 126.506 29.3165 126.252C29.0749 125.998 28.9154 125.677 28.8588 125.331C28.8022 124.985 28.8511 124.63 28.9992 124.312C29.1472 123.995 29.3875 123.729 29.6888 123.549L34.5787 120.641L41.303 86.3605C41.7762 83.3023 42.9061 80.3828 44.615 77.8027C46.3239 75.2227 48.5713 73.0434 51.2026 71.4145C51.5534 71.2007 51.919 71.0122 52.2967 70.8505L66.8733 64.521" stroke="#091F48" stroke-width="0.59361" stroke-miterlimit="10"/>
<path d="M73.3055 0.225221C72.5262 0.0394909 71.7195 -0.00160929 70.9254 0.103961C70.8928 0.104681 70.8603 0.107511 70.8281 0.112421" stroke="#091F48" stroke-width="0.59361" stroke-miterlimit="10"/>
<path d="M69.7734 16.9922C69.7734 16.9922 67.1945 22.9044 71.8066 23.1962C75.945 23.4613 77.4636 17.8382 77.4636 17.8382" stroke="#091F48" stroke-width="0.59361" stroke-miterlimit="10"/>
<path d="M76.9868 10.9061C77.0164 10.7975 77.4605 9.19437 76.6117 8.18477C75.7629 7.17517 74.6123 8.90667 74.4967 9.08007C74.7223 6.59427 72.9951 4.70907 72.9951 4.70907C73.6324 6.91017 72.8118 8.34837 72.8118 8.34837C69.6576 9.08717 67.9219 8.52457 66.6909 8.28207C66.5699 7.49947 66.5852 6.70187 66.7361 5.92457C66.2635 6.58947 65.9909 7.37567 65.9507 8.19037H65.931C65.4624 8.06587 65.0181 7.86327 64.6168 7.59117L63.9922 7.16817C64.9369 2.35723 68.2335 -0.671446 73.3292 0.216854C78.425 1.10515 78.5674 6.96507 78.5674 6.96507L77.4323 7.40647C77.4323 7.40647 77.4422 9.34097 76.9868 10.9061Z" stroke="#091F48" stroke-width="0.59361" stroke-miterlimit="10"/>
<path d="M67.4961 10.6562V12.9954C67.4963 13.0239 67.5032 13.052 67.5162 13.0774C67.5293 13.1027 67.5481 13.1246 67.5711 13.1413C67.5941 13.1581 67.6208 13.1692 67.6489 13.1737C67.677 13.1783 67.7058 13.176 67.733 13.1674C67.917 13.1065 68.0861 13.0077 68.2293 12.8771" stroke="#091F48" stroke-width="0.59361" stroke-miterlimit="10"/>
<path d="M66.0996 12.4357C66.8375 12.148 67.1114 11.0831 66.7114 10.0572C66.3114 9.03129 65.389 8.43289 64.6512 8.72059C63.9133 9.00829 63.6394 10.0731 64.0394 11.099C64.4394 12.1249 65.3618 12.7234 66.0996 12.4357Z" stroke="#091F48" stroke-width="0.59361" stroke-miterlimit="10"/>
<path d="M70.5372 13.0997C71.275 12.812 71.5489 11.7472 71.1489 10.7213C70.749 9.69545 69.8266 9.09695 69.0887 9.38465C68.3508 9.67235 68.0769 10.7372 68.4769 11.7631C68.8769 12.789 69.7993 13.3874 70.5372 13.0997Z" stroke="#091F48" stroke-width="0.59361" stroke-miterlimit="10"/>
<path d="M66.875 10.7765C66.875 10.7765 67.3121 10.2773 68.2286 10.8625" stroke="#091F48" stroke-width="0.59361" stroke-miterlimit="10"/>
<path d="M69.5664 16.1562C69.5664 16.1562 69.8836 17.2307 70.817 20.7134" stroke="#091F48" stroke-width="0.59361" stroke-miterlimit="10"/>
<path d="M46.1953 117.937L51.6943 114.969C52.0095 114.798 52.2782 114.553 52.477 114.255C52.6758 113.956 52.7987 113.614 52.835 113.257C53.7487 104.283 53.4695 98.6094 53.4695 98.6094" stroke="#091F48" stroke-width="0.59361" stroke-miterlimit="10"/>
<path d="M41.2057 71.9145L20.043 57.125" stroke="#091F48" stroke-width="0.59361" stroke-miterlimit="10"/>
<path d="M40.0072 75.9925L20.043 62.0391" stroke="#091F48" stroke-width="0.59361" stroke-miterlimit="10"/>
<path d="M120.959 47.8799V59.9875C120.96 60.5427 120.798 61.086 120.495 61.5513C120.193 62.0167 119.761 62.3839 119.253 62.6087L104.237 69.2583L99.646 76.235C99.5279 76.408 99.3578 76.5389 99.1603 76.6088C98.9629 76.6787 98.7482 76.6839 98.5476 76.6238C98.3469 76.5637 98.1706 76.4413 98.0441 76.2743C97.9176 76.1073 97.8476 75.9044 97.8441 75.695V72.091L96.3043 72.7719C95.9619 72.9217 95.5876 72.9841 95.2151 72.9534C94.8425 72.9227 94.4835 72.7999 94.1702 72.596C93.8569 72.3922 93.5992 72.1137 93.4201 71.7856C93.2411 71.4575 93.1464 71.0899 93.1445 70.7162V60.6051C93.1447 59.344 93.5136 58.1105 94.2058 57.0563C94.898 56.0022 95.8832 55.1734 97.0404 54.6719L117.677 45.7253C118.034 45.5702 118.425 45.5066 118.813 45.5399C119.201 45.5732 119.574 45.7025 119.9 45.9163C120.226 46.13 120.493 46.4214 120.678 46.7642C120.863 47.107 120.96 47.4904 120.959 47.8799Z" fill="#091F48"/>
<path d="M102.539 63.7026C103.279 62.2756 103.079 60.7043 102.092 60.1929C101.105 59.6815 99.7056 60.4237 98.9659 61.8507C98.2263 63.2777 98.4264 64.849 99.413 65.3604C100.4 65.8718 101.799 65.1296 102.539 63.7026Z" fill="white"/>
<path d="M108.953 60.9604C109.693 59.5334 109.493 57.962 108.506 57.4507C107.519 56.9393 106.12 57.6815 105.38 59.1085C104.641 60.5354 104.841 62.1068 105.827 62.6182C106.814 63.1296 108.213 62.3873 108.953 60.9604Z" fill="white"/>
<path d="M115.148 57.9917C115.888 56.5647 115.688 54.9934 114.701 54.482C113.715 53.9706 112.315 54.7128 111.576 56.1398C110.836 57.5668 111.036 59.1381 112.023 59.6495C113.009 60.1609 114.409 59.4187 115.148 57.9917Z" fill="white"/>
</g>
<defs>
<clipPath id="clip0_10704_628">
<rect width="141" height="127" fill="white"/>
</clipPath>
</defs>
</svg>
