<svg preserveAspectRatio="none" width="100%" height="100%" overflow="visible" style="display: block;" viewBox="0 0 141 141" fill="none" xmlns="http://www.w3.org/2000/svg">
<g id="Layer_2">
<path id="Vector" d="M90.6719 67.8633C81.201 73.5033 69.6474 66.858 70.1903 66.7424C88.0945 62.8493 89.6765 51.5538 89.6765 51.5538C86.1021 42.8203 76.359 45.6318 76.359 45.6318C76.077 58.0257 61.3256 58.7237 61.3256 58.7237C60.3781 54.7024 60.4303 45.3132 60.4303 45.3132C55.9592 42.1872 55.0539 43.514 55.0539 43.514C56.4639 31.106 62.142 27.1058 62.142 27.1058C63.0881 26.2246 67.3167 24.2435 69.4881 23.9869L69.5657 24.331C69.5657 24.331 67.3703 29.813 71.5777 30.174C75.1182 30.4842 77.1303 26.1259 77.6788 24.7427C82.2824 26.1696 86.676 29.3633 89.5989 34.7354C96.5136 47.4451 90.6719 67.8633 90.6719 67.8633Z" fill="var(--fill-0, #00CCCC)"/>
<path id="Vector_2" d="M91.6946 62.5152L114.707 77.7432C119.17 80.6957 118.596 87.4158 113.702 89.5689L86.7708 101.421C84.2663 102.523 81.5203 102.962 78.797 102.696C76.0737 102.429 73.4648 101.466 71.2214 99.8999L60.879 92.6694" stroke="var(--stroke-0, #091F48)" stroke-width="0.59361" stroke-miterlimit="10"/>
<path id="Vector_3" d="M91.6954 67.4262L90.9213 66.9129L114.712 82.6514C119.175 85.6039 118.601 92.324 113.707 94.477L86.7759 106.329C84.2713 107.431 81.5253 107.87 78.802 107.604C76.0787 107.337 73.4699 106.375 71.2264 104.808L58.0767 95.4429" stroke="var(--stroke-0, #091F48)" stroke-width="0.59361" stroke-miterlimit="10"/>
<path id="Vector_4" d="M111.722 88.7285L86.9692 99.6236C84.6673 100.636 82.1437 101.039 79.641 100.794C77.1383 100.549 74.7407 99.6644 72.6788 98.2248L63.1938 91.5612C64.4998 90.5603 65.9631 89.7836 67.5239 89.2629C71.4338 87.9348 75.2495 86.344 78.9449 84.5013C81.7501 83.1136 84.2142 81.1235 86.1612 78.6732C88.1082 76.2228 89.49 73.3728 90.208 70.3266C90.7043 68.2186 91.14 66.0867 91.4967 63.9435L113.281 78.3438C117.381 81.0567 116.218 86.7517 111.722 88.7285Z" fill="var(--fill-0, #00CCCC)"/>
<path id="Vector_5" d="M47.9405 120.304C47.9405 120.304 52.2805 118.505 53.1124 117.148C53.1124 117.148 53.2689 120.228 52.4567 121.28C51.6446 122.332 46.7914 125.112 46.5305 124.764C46.2697 124.416 47.9405 120.304 47.9405 120.304Z" fill="var(--fill-0, #00CCCC)"/>
<path id="Vector_6" d="M34.5802 127.642C34.5802 127.642 35.3698 128.713 38.1714 127.642C40.9731 126.57 47.0685 122.623 47.0685 122.623C47.0685 122.623 45.3681 127.189 44.7519 127.691C44.1357 128.193 32.4948 133.895 32.4948 133.895C32.4948 133.895 27.2905 134.635 29.2518 130.934L34.5802 127.642Z" fill="var(--fill-0, #00CCCC)"/>
<path id="Vector_7" d="M51.3339 67.9874C44.9184 70.4845 38.1292 76.3515 40.0821 92.5989L40.6249 96.8205" stroke="var(--stroke-0, #091F48)" stroke-width="0.59361" stroke-miterlimit="10"/>
<path id="Vector_8" d="M51.3241 57.3771C52.3731 55.8797 53.3206 54.261 53.9015 52.5183C54.4825 50.7755 54.5121 48.8875 54.6742 47.0545C55.1057 42.1393 55.774 38.0742 57.6705 33.496C59.3131 29.5339 64.2749 24.4297 69.2113 23.946L69.6555 23.908" stroke="var(--stroke-0, #091F48)" stroke-width="0.59361" stroke-miterlimit="10"/>
<path id="Vector_9" d="M63.7313 67.6278C63.7074 67.5588 63.6834 67.4939 63.658 67.4262" stroke="var(--stroke-0, #091F48)" stroke-width="0.59361" stroke-miterlimit="10"/>
<path id="Vector_10" d="M61.3255 58.4191C61.083 56.9936 60.9025 55.6118 60.7615 54.3005C60.7619 54.2758 60.7591 54.2512 60.753 54.2272C60.0142 46.9051 60.7615 41.5781 60.7615 41.5781" stroke="var(--stroke-0, #091F48)" stroke-width="0.59361" stroke-miterlimit="10"/>
<path id="Vector_11" d="M78.5703 13.9787L77.4423 14.4187C77.4423 14.4539 77.4423 14.8938 77.3943 15.51C77.3419 16.2459 77.2249 16.9758 77.0447 17.6913C77.1448 17.2034 77.29 16.0444 76.6527 15.2379C76.6428 15.2214 76.6315 15.2058 76.6188 15.1913C76.1958 14.6823 75.6741 14.884 75.2554 15.2336C74.9662 15.4783 74.7136 15.7632 74.5052 16.0796C74.5783 15.1377 74.4094 14.1927 74.0146 13.3344C73.7571 12.7488 73.4156 12.204 73.0008 11.7171C73.6395 13.9167 72.8203 15.3563 72.8203 15.3563C70.656 15.8653 69.1543 15.7568 68.0348 15.5636C67.0915 14.6837 67.4186 11.5155 67.4186 11.5155C66.4697 12.291 66.6981 15.2915 66.6981 15.2915C66.5769 14.5085 66.5917 13.7105 66.7418 12.9325C66.2704 13.5991 65.9981 14.3859 65.9564 15.2012L65.9395 15.1928C65.8741 15.176 65.8096 15.1557 65.7463 15.1321C65.6302 15.071 65.5176 15.0032 65.4093 14.9291L64.7847 14.5061C65.728 9.69375 69.026 6.66789 74.1217 7.55619C74.4544 7.61352 74.7817 7.69841 75.1003 7.80999C78.4575 9.5598 78.5703 13.9787 78.5703 13.9787Z" fill="var(--fill-0, #091F48)"/>
<path id="Vector_12" d="M49.4912 60.8472L48.2067 56.9809C48.1782 56.8909 48.1273 56.8096 48.0587 56.7447C47.9902 56.6799 47.9062 56.6335 47.8147 56.6101C47.8034 56.6101 47.7907 56.6101 47.778 56.6016C47.7654 56.5932 47.7625 56.6016 47.7541 56.6016C47.7245 56.5997 47.6948 56.5997 47.6652 56.6016C47.5228 56.6021 47.3857 56.6565 47.2817 56.7539C47.1774 56.8503 47.0941 56.9671 47.0371 57.0972C46.9801 57.2273 46.9506 57.3677 46.9504 57.5097C46.9505 57.6208 46.9681 57.7312 47.0025 57.8368C47.2845 58.6532 47.7865 60.1267 48.0248 60.7978" fill="var(--fill-0, #00CCCC)"/>
<path id="Vector_13" d="M49.2011 60.8472L47.8165 56.6101C47.8052 56.6101 47.7925 56.6101 47.7798 56.6016C47.7671 56.5932 47.7643 56.6016 47.7559 56.6016L47.0297 56.4606C46.642 56.3887 46.2542 56.3112 45.8665 56.2393C45.4012 56.1462 44.933 56.0687 44.4692 55.9573C44.3597 55.9263 44.2472 55.9074 44.1336 55.9009C43.9906 55.9004 43.8531 55.9556 43.7501 56.0546C43.6448 56.1508 43.561 56.268 43.5039 56.3987C43.4468 56.5294 43.4178 56.6706 43.4187 56.8131C43.418 56.9229 43.4356 57.0321 43.4709 57.136C43.7825 58.0497 44.3761 59.7784 44.565 60.3029L49.2011 60.8472Z" fill="var(--fill-0, #00CCCC)"/>
<path id="Vector_14" d="M76.5771 41.5767C76.4361 43.146 76.3628 45.0453 76.3134 47.4324C76.3134 52.5084 70.7016 56.7116 65.7145 57.6732L56.5692 59.7389C55.3608 59.9729 54.2906 59.2186 53.4503 58.718C52.5859 58.2034 51.7005 57.59 51.0772 57.1346C50.1805 56.479 48.4532 57.0063 48.8071 58.57C48.8834 58.8673 49.0273 59.143 49.2276 59.3756C49.4279 59.6082 49.6792 59.7914 49.9619 59.9109C50.1211 59.9823 50.2851 60.0426 50.4526 60.0914C50.515 60.107 50.5705 60.1428 50.6105 60.1932C50.6504 60.2436 50.6726 60.3058 50.6736 60.3701C50.6745 60.4344 50.6542 60.4973 50.6158 60.5489C50.5774 60.6004 50.523 60.6379 50.4611 60.6554C49.6687 60.9289 48.2178 61.0911 45.8772 60.2324C42.8781 59.1283 42.6454 65.9725 46.7457 67.1639H46.7612C50.5386 68.306 54.6037 68.1594 58.5079 67.9958C62.9415 67.8278 67.3532 67.2897 71.6971 66.387C73.9066 65.9189 76.1767 65.4325 78.1986 64.4328C81.6813 62.7112 84.1911 60.7372 86.5782 57.6648C89.2572 54.2201 90.4007 49.7011 91.0465 45.464C91.7854 40.6165 90.7645 36.5232 88.1659 32.351L88.07 32.1988" stroke="var(--stroke-0, #091F48)" stroke-width="0.59361" stroke-miterlimit="10"/>
<path id="Vector_15" d="M49.4912 60.8472L48.2067 56.9809C48.1782 56.8909 48.1273 56.8096 48.0587 56.7447C47.9902 56.6799 47.9062 56.6335 47.8147 56.6101C47.8034 56.6101 47.7907 56.6101 47.778 56.6016C47.7654 56.5932 47.7625 56.6016 47.7541 56.6016C47.7245 56.5997 47.6948 56.5997 47.6652 56.6016C47.5228 56.6021 47.3857 56.6565 47.2817 56.7539C47.1774 56.8503 47.0941 56.9671 47.0371 57.0972C46.9801 57.2273 46.9506 57.3677 46.9504 57.5097C46.9505 57.6208 46.9681 57.7312 47.0025 57.8368C47.2845 58.6532 47.7865 60.1267 48.0248 60.7978" stroke="var(--stroke-0, #091F48)" stroke-width="0.59361" stroke-miterlimit="10"/>
<path id="Vector_16" d="M47.8165 56.6101C47.8052 56.6101 47.7925 56.6101 47.7798 56.6016C47.7671 56.5932 47.7643 56.6016 47.7559 56.6016L47.0297 56.4606C46.642 56.3887 46.2542 56.3112 45.8665 56.2393C45.4012 56.1462 44.933 56.0687 44.4692 55.9573C44.3597 55.9263 44.2472 55.9074 44.1336 55.9009C43.9906 55.9004 43.8531 55.9556 43.7501 56.0546C43.6448 56.1508 43.561 56.268 43.5039 56.3987C43.4468 56.5294 43.4178 56.6706 43.4187 56.8131C43.418 56.9229 43.4356 57.0321 43.4709 57.136C43.7825 58.0497 44.3761 59.7784 44.565 60.3029" stroke="var(--stroke-0, #091F48)" stroke-width="0.59361" stroke-miterlimit="10"/>
<path id="Vector_17" d="M65.5188 15.063C65.5188 16.896 65.8755 18.6487 66.7553 20.2674C67.4603 21.5674 68.4953 22.8773 69.9758 23.3073C70.3039 23.402 70.6438 23.4494 70.9853 23.4483C73.498 23.437 73.8899 20.4605 73.8899 20.4605" stroke="var(--stroke-0, #091F48)" stroke-width="0.59361" stroke-miterlimit="10"/>
<path id="Vector_18" d="M77.3098 16.1262V16.1346C77.1933 17.0441 76.9932 17.9409 76.7119 18.8136C76.3759 19.8546 76.2966 20.9614 76.4807 22.0397L76.8712 24.3112C76.889 24.4124 76.935 24.5066 77.0038 24.5829C77.0726 24.6592 77.1616 24.7146 77.2604 24.7427C82.218 26.1823 86.6186 29.359 89.1791 33.9457C92.3728 39.6732 92.9551 46.5709 92.6971 53.0005C92.4701 58.5742 91.5691 64.1155 90.2902 69.5398C89.5084 72.855 88.0043 75.9567 85.8853 78.6234C83.7662 81.2901 81.0845 83.4561 78.0317 84.9666C74.0143 86.9726 69.8655 88.7038 65.6138 90.1483C63.3631 90.8937 61.3068 92.1313 59.5944 93.771C57.8819 95.4108 56.5564 97.4115 55.7142 99.6278L45.7229 126.195C45.3557 127.176 44.6315 127.982 43.6954 128.451L34.1215 133.261C32.9125 133.866 31.5334 134.041 30.2115 133.757C29.8688 133.683 29.5563 133.507 29.3147 133.253C29.0731 132.999 28.9136 132.678 28.857 132.332C28.8004 131.986 28.8493 131.631 28.9974 131.313C29.1454 130.996 29.3857 130.73 29.687 130.55L34.5769 127.642L41.3012 93.3617C41.7744 90.3035 42.9043 87.384 44.6132 84.8039C46.3221 82.2239 48.5695 80.0446 51.2008 78.4157C51.5516 78.2019 51.9172 78.0134 52.2949 77.8517L66.8715 71.5222" stroke="var(--stroke-0, #091F48)" stroke-width="0.59361" stroke-miterlimit="10"/>
<path id="Vector_19" d="M73.303 7.22485C72.5237 7.03912 71.717 6.99802 70.9229 7.10359C70.8903 7.10431 70.8578 7.10714 70.8256 7.11205" stroke="var(--stroke-0, #091F48)" stroke-width="0.59361" stroke-miterlimit="10"/>
<path id="Vector_20" d="M69.772 23.9911C69.772 23.9911 67.1931 29.9033 71.8052 30.1951C75.9436 30.4602 77.4622 24.8371 77.4622 24.8371" stroke="var(--stroke-0, #091F48)" stroke-width="0.59361" stroke-miterlimit="10"/>
<path id="Vector_21" d="M76.9857 17.907C77.0153 17.7984 77.4594 16.1953 76.6106 15.1857C75.7618 14.1761 74.6112 15.9076 74.4956 16.081C74.7212 13.5952 72.994 11.71 72.994 11.71C73.6313 13.9111 72.8107 15.3493 72.8107 15.3493C69.6565 16.0881 67.9208 15.5255 66.6898 15.283C66.5688 14.5004 66.5841 13.7028 66.735 12.9255C66.2624 13.5904 65.9898 14.3766 65.9496 15.1913H65.9299C65.4613 15.0668 65.017 14.8642 64.6157 14.5921L63.9911 14.1691C64.9358 9.35816 68.2324 6.32948 73.3281 7.21778C78.4239 8.10608 78.5663 13.966 78.5663 13.966L77.4312 14.4074C77.4312 14.4074 77.4411 16.3419 76.9857 17.907Z" stroke="var(--stroke-0, #091F48)" stroke-width="0.59361" stroke-miterlimit="10"/>
<path id="Vector_22" d="M67.4949 17.656V19.9952C67.4951 20.0237 67.502 20.0517 67.515 20.0771C67.5281 20.1024 67.5469 20.1243 67.5699 20.141C67.5929 20.1578 67.6196 20.1689 67.6477 20.1734C67.6758 20.178 67.7046 20.1758 67.7318 20.1672C67.9158 20.1063 68.0849 20.0074 68.2281 19.8768" stroke="var(--stroke-0, #091F48)" stroke-width="0.59361" stroke-miterlimit="10"/>
<path id="Vector_23" d="M66.0973 19.4319C66.8352 19.1442 67.1091 18.0793 66.7091 17.0534C66.3091 16.0275 65.3867 15.4291 64.6489 15.7168C63.911 16.0045 63.6371 17.0693 64.0371 18.0952C64.4371 19.1211 65.3595 19.7196 66.0973 19.4319Z" stroke="var(--stroke-0, #091F48)" stroke-width="0.59361" stroke-miterlimit="10"/>
<path id="Vector_24" d="M70.5362 20.1007C71.274 19.813 71.5479 18.7482 71.1479 17.7223C70.748 16.6964 69.8256 16.0979 69.0877 16.3856C68.3498 16.6733 68.0759 17.7382 68.4759 18.7641C68.8759 19.79 69.7983 20.3884 70.5362 20.1007Z" stroke="var(--stroke-0, #091F48)" stroke-width="0.59361" stroke-miterlimit="10"/>
<path id="Vector_25" d="M66.8753 17.7773C66.8753 17.7773 67.3124 17.2781 68.2289 17.8633" stroke="var(--stroke-0, #091F48)" stroke-width="0.59361" stroke-miterlimit="10"/>
<path id="Vector_26" d="M69.565 23.1592C69.565 23.1592 69.8822 24.2337 70.8156 27.7164" stroke="var(--stroke-0, #091F48)" stroke-width="0.59361" stroke-miterlimit="10"/>
<path id="Vector_27" d="M46.1958 124.94L51.6948 121.972C52.01 121.801 52.2787 121.556 52.4775 121.258C52.6763 120.959 52.7992 120.617 52.8355 120.26C53.7492 111.286 53.47 105.612 53.47 105.612" stroke="var(--stroke-0, #091F48)" stroke-width="0.59361" stroke-miterlimit="10"/>
<path id="Vector_28" d="M41.2048 78.9149L20.0421 64.1254" stroke="var(--stroke-0, #091F48)" stroke-width="0.59361" stroke-miterlimit="10"/>
<path id="Vector_29" d="M40.0063 82.9898L20.0421 69.0364" stroke="var(--stroke-0, #091F48)" stroke-width="0.59361" stroke-miterlimit="10"/>
<path id="Vector_30" d="M120.958 54.8786V66.9863C120.959 67.5415 120.797 68.0847 120.494 68.55C120.192 69.0154 119.76 69.3827 119.252 69.6075L104.236 76.257L99.6449 83.2337C99.5268 83.4067 99.3567 83.5377 99.1592 83.6076C98.9618 83.6775 98.7471 83.6827 98.5465 83.6226C98.3458 83.5625 98.1695 83.44 98.043 83.273C97.9165 83.106 97.8465 82.9031 97.843 82.6937V79.0897L96.3032 79.7707C95.9608 79.9205 95.5865 79.9828 95.214 79.9521C94.8414 79.9214 94.4824 79.7986 94.1691 79.5947C93.8558 79.3909 93.5981 79.1124 93.419 78.7843C93.24 78.4562 93.1453 78.0887 93.1434 77.715V67.6039C93.1436 66.3428 93.5125 65.1092 94.2047 64.055C94.8969 63.0009 95.8821 62.1721 97.0393 61.6706L117.676 52.7241C118.033 52.569 118.424 52.5053 118.812 52.5386C119.2 52.5719 119.573 52.7012 119.899 52.915C120.225 53.1287 120.492 53.4201 120.677 53.7629C120.862 54.1057 120.959 54.4891 120.958 54.8786Z" fill="var(--fill-0, #091F48)"/>
<path id="Vector_31" d="M102.537 70.7038C103.277 69.2768 103.077 67.7055 102.09 67.1941C101.103 66.6827 99.704 67.4249 98.9643 68.8519C98.2247 70.2789 98.4248 71.8502 99.4114 72.3616C100.398 72.873 101.797 72.1308 102.537 70.7038Z" fill="var(--fill-0, white)"/>
<path id="Vector_32" d="M108.951 67.9589C109.691 66.5319 109.491 64.9605 108.504 64.4492C107.517 63.9378 106.118 64.68 105.378 66.107C104.639 67.5339 104.839 69.1053 105.825 69.6167C106.812 70.1281 108.211 69.3858 108.951 67.9589Z" fill="var(--fill-0, white)"/>
<path id="Vector_33" d="M115.148 64.9946C115.888 63.5676 115.688 61.9963 114.701 61.4849C113.715 60.9735 112.315 61.7157 111.576 63.1427C110.836 64.5697 111.036 66.141 112.023 66.6524C113.009 67.1638 114.409 66.4216 115.148 64.9946Z" fill="var(--fill-0, white)"/>
</g>
</svg>
