<svg preserveAspectRatio="none" width="100%" height="100%" overflow="visible" style="display: block;" viewBox="0 0 125 125" fill="none" xmlns="http://www.w3.org/2000/svg">
<g id="Layer_2">
<path id="Vector" d="M46.9814 86.43C46.9814 86.4438 46.9814 86.4575 46.9814 86.4713C46.9814 87.39 51.0489 90.8938 51.6614 91.5425" stroke="var(--stroke-0, #CCDDE2)" stroke-width="0.675" stroke-miterlimit="10"/>
<path id="Vector_2" d="M34.3252 118.655C33.0914 118.696 31.9252 118.691 30.8177 118.646C18.0002 117.072 8.35894 91.5425 23.4402 83.7925" stroke="var(--stroke-0, #CCDDE2)" stroke-width="0.675" stroke-miterlimit="10"/>
<path id="Vector_3" d="M14.1735 44.1512H41.4223" stroke="var(--stroke-0, white)" stroke-width="0.675" stroke-miterlimit="10"/>
<path id="Vector_4" d="M14.1735 64.1062H41.4223" stroke="var(--stroke-0, white)" stroke-width="0.675" stroke-miterlimit="10"/>
<path id="Vector_5" d="M20.5023 66.6425H35.0935" stroke="var(--stroke-0, white)" stroke-width="0.675" stroke-miterlimit="10"/>
<path id="Vector_6" d="M29.0127 59.2387V56.2025" stroke="var(--stroke-0, white)" stroke-width="0.675" stroke-linecap="round" stroke-linejoin="round"/>
<path id="Vector_7" d="M87.6512 58.4038C87.6512 58.4038 80.6387 54.625 76.1162 53.7113C76.1162 53.7113 76.085 54.3863 75.3325 56.0525C74.58 57.7188 72.36 62.6425 72.36 62.6425L69.0275 60.1113L69.0775 63.885L59.935 73.65L54.1562 61L54.9262 57.4412L51.6337 58.7025L49.875 52.4275C49.875 52.4275 41.205 54.3775 33.7375 60.3862C26.27 66.395 24.1312 75.7613 23.4375 83.7925C22.7437 91.8238 23.5775 100.292 34.1875 103.154C34.1875 103.154 39.1725 104.404 43.2312 102.731C44.4962 102.209 46.3337 101.721 48.2612 101.294L48.1987 101.316C48.1987 101.316 47.3237 104.352 44.7887 106.005C44.7887 106.005 49.23 109.38 56.8187 110.851C64.4075 112.322 80.4437 113.203 88.5262 106.19C96.6087 99.1775 96.9387 87.6162 96.9387 87.6162C96.9387 87.6162 99.5637 65.295 87.6512 58.4038ZM46.125 78.1312C45.8497 78.1222 45.5833 78.0324 45.3587 77.873C45.1342 77.7136 44.9615 77.4917 44.8621 77.2349C44.7627 76.9781 44.741 76.6977 44.7998 76.4287C44.8586 76.1596 44.9952 75.9138 45.1926 75.7219C45.39 75.5299 45.6395 75.4002 45.9101 75.349C46.1807 75.2978 46.4603 75.3273 46.7142 75.4338C46.9682 75.5403 47.1852 75.7192 47.3382 75.9481C47.4913 76.177 47.5736 76.4459 47.575 76.7213C47.5684 77.1001 47.4122 77.461 47.1406 77.7251C46.8689 77.9893 46.5038 78.1353 46.125 78.1312ZM76.9412 91C76.7287 92.08 75.59 98.9125 72.775 99.715C69.96 100.517 67.1812 98.7725 60.615 99.4538C60.615 99.4538 59.2 99.5075 57.24 99.6825C53.1462 94.8863 57.2675 88.05 57.2675 88.05C57.2675 88.05 66.5725 85.2163 71.0087 87.2613C75.445 89.3063 77.1575 89.9175 76.9412 91Z" fill="var(--fill-0, #00CCCC)"/>
<path id="Vector_8" d="M84.7498 109.914V118.701C70.5623 118.701 51.3673 118.679 37.4998 118.661C37.3285 114.139 37.0585 103.735 38.206 103.661C39.6748 103.571 41.2285 102.63 43.021 104.77C44.8135 106.91 52.3173 110.737 62.8285 111.637C73.3398 112.537 82.2035 110.061 84.1723 108.99C84.1735 108.991 84.7498 107.964 84.7498 109.914Z" fill="var(--fill-0, #00CCCC)"/>
<path id="Vector_9" d="M46.1251 74.1525C47.5826 74.1525 48.7688 75.3075 48.7688 76.7275C48.7688 78.1475 47.5826 79.3025 46.1251 79.3025C44.6676 79.3025 43.4826 78.1475 43.4826 76.7275C43.4826 75.3075 44.6676 74.1525 46.1251 74.1525ZM46.1251 73.2512C44.1676 73.2512 42.5813 74.8075 42.5813 76.7275C42.5813 78.6475 44.1676 80.2037 46.1251 80.2037C48.0826 80.2037 49.6688 78.6475 49.6688 76.7275C49.6688 74.8075 48.0813 73.25 46.1251 73.25V73.2512Z" fill="var(--fill-0, white)"/>
<path id="Vector_10" d="M64.0223 57.5612L61.7498 60.115C61.6753 60.1749 61.5894 60.2191 61.4973 60.2448C61.4052 60.2706 61.3088 60.2773 61.214 60.2647C61.1192 60.2521 61.028 60.2203 60.9458 60.1714C60.8637 60.1225 60.7923 60.0573 60.7361 59.98L59.1373 56.54L62.2498 54.0662L64.0223 57.5612Z" fill="var(--fill-0, #00CCCC)"/>
<path id="Vector_11" d="M62.5812 59.1788L63.5449 63.05L60.7324 66.6213L58.6324 61.9638L60.1887 58.8088" fill="var(--fill-0, #00CCCC)"/>
<path id="Vector_12" d="M72.1539 31.4488C71.6539 31.5613 71.2164 31.9488 70.8827 32.3625C70.5724 32.7506 70.3097 33.1744 70.1002 33.625C70.1002 33.625 69.0452 29.125 68.6002 25.2213C68.4514 23.9513 68.0064 23.2713 67.4652 22.9288C66.3489 22.2213 64.8402 22.9775 64.8402 22.9775L59.8277 25.7075C58.866 26.2374 57.8075 26.5681 56.7152 26.68C56.2048 26.7388 55.6893 26.7388 55.1789 26.68C52.4177 25.315 52.3777 19.93 55.7327 19.8925C55.8336 19.9867 55.9284 20.0874 56.0164 20.1938C55.9681 20.0946 55.9231 19.9958 55.8814 19.8975C56.0691 19.9032 56.2559 19.9241 56.4402 19.96C56.7152 20.0138 56.9714 20.2975 57.1427 20.4963C56.2514 18.7663 57.2014 16.5863 58.9577 15.925C60.0252 15.5238 61.2189 15.6 62.3327 15.835C62.5089 15.87 62.6839 15.9113 62.8602 15.96C65.6527 16.8025 68.0977 18.2663 69.9039 20.71C72.1902 23.8013 72.7614 27.715 72.1539 31.4488Z" fill="var(--fill-0, #2E2E2E)"/>
<path id="Vector_13" d="M40.3173 78.2012C37.2585 91.8262 48.9998 89.5437 64.2573 86.8575C69.7085 85.8987 74.3473 88.265 77.0348 90.4725" stroke="var(--stroke-0, #091F48)" stroke-width="0.675" stroke-linejoin="round"/>
<path id="Vector_14" d="M49.8751 52.4262C42.9413 54.1325 34.7613 58.2712 30.2613 63.8887C24.3701 71.2325 23.1363 80.9975 23.2701 90.1387C23.3951 99.07 32.7538 105.239 41.2488 103.309" stroke="var(--stroke-0, #091F48)" stroke-width="0.675" stroke-linejoin="round"/>
<path id="Vector_15" d="M53.4663 49.09H53.4719" stroke="var(--stroke-0, #091F48)" stroke-width="0.675" stroke-linejoin="round"/>
<path id="Vector_16" d="M77.7848 78.7038C77.7848 78.7038 78.0348 84.615 77.0348 90.4725C76.581 93.1463 75.8673 95.8088 74.7535 97.8938C74.4545 98.4446 74.0151 98.9064 73.4798 99.2324C72.9446 99.5585 72.3326 99.737 71.706 99.75C70.5639 99.7708 69.4216 99.7253 68.2848 99.6138C58.4873 98.6938 49.3048 100.713 42.6085 102.931C42.1585 103.079 41.706 103.204 41.251 103.306C45.4748 107.139 56.341 114.224 76.886 111.151C104.511 107.026 95.8773 70.5475 95.8773 70.5475C95.1273 66.6175 92.7848 62.9688 89.9685 60.205C86.7785 57.08 80.5935 55.0138 76.3885 53.705" stroke="var(--stroke-0, #091F48)" stroke-width="0.675" stroke-linejoin="round"/>
<path id="Vector_17" d="M61.6127 46.8375C61.6127 46.8375 53.2077 45.3375 54.3339 35.425C54.8339 31.015 55.7977 28.3175 56.7089 26.675" stroke="var(--stroke-0, #091F48)" stroke-width="0.675" stroke-linejoin="round"/>
<path id="Vector_18" d="M69.5725 44.23C71.125 41.91 70.8875 38.83 71.375 38.055C72.125 36.8525 75.125 33.1012 73.325 31.75C72.91 31.4387 72.5138 31.375 72.1538 31.4475C70.9425 31.7175 70.1 33.6237 70.1 33.6237C70.1 33.6237 69.0463 29.1237 68.6 25.2187C68.1538 21.3137 64.8388 22.9762 64.8388 22.9762L59.8263 25.705C58.865 26.236 57.8063 26.5672 56.7138 26.6787C56.1421 26.7461 55.5643 26.7414 54.9938 26.665C51.1188 26.165 50.8688 18.8287 55.3138 19.665C55.5888 19.7187 55.845 20.0025 56.0163 20.2012C55.1238 18.4712 56.075 16.2912 57.8313 15.63C58.8988 15.2287 60.0925 15.305 61.2063 15.54C64.6838 16.2737 67.75 17.79 69.9038 20.71C72.1913 23.8037 72.7638 27.7175 72.1538 31.4512" stroke="var(--stroke-0, #091F48)" stroke-width="0.675" stroke-linejoin="round"/>
<path id="Vector_19" d="M60.5627 37.5275H58.7614L58.8789 36.1L59.3602 30.3213" stroke="var(--stroke-0, #091F48)" stroke-width="0.675" stroke-linejoin="round"/>
<path id="Vector_20" d="M58.8749 36.1H53.9274C53.5767 36.1 53.2403 35.9607 52.9923 35.7126C52.7443 35.4646 52.6049 35.1282 52.6049 34.7775V30.3225H60.9674M60.9674 30.3225V34.7775C60.9678 35.1284 61.1074 35.4647 61.3556 35.7127C61.6038 35.9607 61.9403 36.1 62.2912 36.1H67.1974C67.5483 36.1 67.8848 35.9607 68.133 35.7127C68.3812 35.4647 68.5209 35.1284 68.5212 34.7775V30.3225H60.9674Z" stroke="var(--stroke-0, #091F48)" stroke-width="0.675" stroke-linejoin="round"/>
<path id="Vector_21" d="M60.5625 39.25C60.5625 39.25 61.8388 39.7 63.265 37.5225" stroke="var(--stroke-0, #091F48)" stroke-width="0.675" stroke-linejoin="round"/>
<path id="Vector_22" d="M59.884 74.0875L69.199 63.75L69.029 60.11L72.2503 62.8863L76.389 53.71L76.4003 53.6863C75.3882 53.0899 74.4439 52.3853 73.584 51.585C73.1882 51.2133 72.8132 50.825 72.459 50.42C72.0411 49.9457 71.6513 49.4473 71.2915 48.9275L71.0003 48.5163" stroke="var(--stroke-0, #091F48)" stroke-width="0.675" stroke-linejoin="round"/>
<path id="Vector_23" d="M65.9936 59.7525L64.0761 57.1113L62.0311 54.4163L66.3236 51.8188L71.0036 48.5163L72.4549 50.42L72.9424 51.0613L71.7586 52.5775L62.5149 64.4425V64.4475L60.7661 66.6213" stroke="var(--stroke-0, #091F48)" stroke-width="0.675" stroke-linejoin="round"/>
<path id="Vector_24" d="M57.0287 58.25L62.0287 54.42L55.8862 48.2812L53.5587 50.4762L60.7649 66.625L59.8837 74.0888L54.1574 61L54.9237 57.4425L51.6312 58.7L49.7199 52.4912C51.9166 51.6436 53.9029 50.3287 55.5412 48.6375L55.8887 48.2775" stroke="var(--stroke-0, #091F48)" stroke-width="0.675" stroke-linejoin="round"/>
<path id="Vector_25" d="M64.0763 57.5613L61.8 60.115C61.7256 60.1749 61.6398 60.219 61.5478 60.2448C61.4558 60.2705 61.3595 60.2772 61.2648 60.2646C61.1701 60.252 61.079 60.2202 60.9969 60.1713C60.9149 60.1224 60.8436 60.0573 60.7875 59.98L59.1875 56.54" stroke="var(--stroke-0, #091F48)" stroke-width="0.675" stroke-linejoin="round"/>
<path id="Vector_26" d="M62.635 59.1788L63.6 63.05" stroke="var(--stroke-0, #091F48)" stroke-width="0.675" stroke-linejoin="round"/>
<path id="Vector_27" d="M60.2426 58.8088L58.6863 61.9638" stroke="var(--stroke-0, #091F48)" stroke-width="0.675" stroke-linejoin="round"/>
<path id="Vector_28" d="M71 48.5162L69.5725 44.225C69.1839 44.7695 68.6831 45.2244 68.1037 45.5587" stroke="var(--stroke-0, #091F48)" stroke-width="0.675" stroke-linejoin="round"/>
<path id="Vector_29" d="M56.8701 44.225L55.8889 48.2775" stroke="var(--stroke-0, #091F48)" stroke-width="0.675" stroke-linejoin="round"/>
<path id="Vector_30" d="M63.655 33.925C64.0181 33.925 64.3125 33.6306 64.3125 33.2675C64.3125 32.9044 64.0181 32.61 63.655 32.61C63.2919 32.61 62.9975 32.9044 62.9975 33.2675C62.9975 33.6306 63.2919 33.925 63.655 33.925Z" fill="var(--fill-0, #091F48)"/>
<path id="Vector_31" d="M57.9214 33.925C58.2845 33.925 58.5789 33.6306 58.5789 33.2675C58.5789 32.9044 58.2845 32.61 57.9214 32.61C57.5582 32.61 57.2639 32.9044 57.2639 33.2675C57.2639 33.6306 57.5582 33.925 57.9214 33.925Z" fill="var(--fill-0, #091F48)"/>
<path id="Vector_32" d="M76.2788 53.75C76.2788 53.75 80.7013 55.4475 76.7288 62.3113C75.4788 64.4638 74.8013 65.7388 74.4551 66.4688" stroke="var(--stroke-0, #091F48)" stroke-width="0.675" stroke-linejoin="round"/>
<path id="Vector_33" d="M66.8947 81.5813C66.8947 81.5813 65.166 80.8075 65.2185 80.3313C65.271 79.855 68.7485 68.4813 71.1635 67.0088C73.5785 65.5363 75.126 66.8063 75.126 66.8063C75.126 66.8063 77.471 68.0763 76.7648 71.3925C76.0585 74.7088 71.7335 82.63 71.7335 82.63L70.0373 82.05" stroke="var(--stroke-0, #091F48)" stroke-width="0.675" stroke-linejoin="round"/>
<path id="Vector_34" d="M48.2 52.9025C48.2 52.9025 45.6875 61.1525 46.2 73.4387" stroke="var(--stroke-0, #091F48)" stroke-width="0.675" stroke-linejoin="round"/>
<path id="Vector_35" d="M46.1396 80.3424C48.2127 80.3323 49.8854 78.7061 49.8756 76.7103C49.8659 74.7145 48.1774 73.1048 46.1043 73.115C44.0312 73.1251 42.3585 74.7512 42.3682 76.747C42.378 78.7428 44.0665 80.3525 46.1396 80.3424Z" stroke="var(--stroke-0, #091F48)" stroke-width="0.675" stroke-linejoin="round"/>
<path id="Vector_36" d="M84.755 118.701V108.697V108.441" stroke="var(--stroke-0, #091F48)" stroke-width="0.675" stroke-linejoin="round"/>
<path id="Vector_37" d="M37.5861 118.665V103.654V103.649" stroke="var(--stroke-0, #091F48)" stroke-width="0.675" stroke-linejoin="round"/>
<path id="Vector_38" d="M19.6524 118.634C19.6524 118.634 27.0699 118.647 37.5012 118.661C51.3762 118.679 70.5674 118.701 84.7512 118.701C95.6862 118.701 103.64 118.679 103.876 118.634" stroke="var(--stroke-0, #091F48)" stroke-width="0.675" stroke-linejoin="round"/>
<path id="Vector_39" d="M67.4439 82.63C67.9486 82.63 68.3577 82.2209 68.3577 81.7162C68.3577 81.2116 67.9486 80.8025 67.4439 80.8025C66.9393 80.8025 66.5302 81.2116 66.5302 81.7162C66.5302 82.2209 66.9393 82.63 67.4439 82.63Z" fill="var(--fill-0, white)"/>
<path id="Vector_40" d="M69.5827 82.8075C70.0873 82.8075 70.4964 82.3984 70.4964 81.8938C70.4964 81.3891 70.0873 80.98 69.5827 80.98C69.078 80.98 68.6689 81.3891 68.6689 81.8938C68.6689 82.3984 69.078 82.8075 69.5827 82.8075Z" fill="var(--fill-0, white)"/>
<path id="Vector_41" d="M103.099 20.6438L102.584 20.2813L107.81 12.7825L108.325 13.145L103.099 20.6438Z" fill="var(--fill-0, white)"/>
<path id="Vector_42" d="M93.736 32.1017L92.2193 34.2702L93.5888 35.228L95.1055 33.0596L93.736 32.1017Z" fill="var(--fill-0, white)"/>
<path id="Vector_43" d="M95.25 37.5875C95.1115 37.7924 94.9128 37.9493 94.6812 38.0363C94.587 38.0759 94.4846 38.0918 94.3828 38.0827C94.281 38.0735 94.1831 38.0396 94.0975 37.9837L89.4725 34.745C89.1475 34.5175 89.14 33.9675 89.4487 33.5262C89.5876 33.3201 89.7873 33.1623 90.02 33.075C90.1143 33.0374 90.2163 33.0229 90.3174 33.0327C90.4185 33.0424 90.5158 33.0762 90.6012 33.1312L95.2262 36.37C95.545 36.5962 95.555 37.1438 95.25 37.5875Z" fill="var(--fill-0, white)"/>
<path id="Vector_44" d="M104.873 59.69C107.857 59.69 110.276 57.2707 110.276 54.2862C110.276 51.3018 107.857 48.8825 104.873 48.8825C101.888 48.8825 99.4689 51.3018 99.4689 54.2862C99.4689 57.2707 101.888 59.69 104.873 59.69Z" fill="var(--fill-0, #00CCCC)" fill-opacity="0.07"/>
<path id="Vector_45" d="M103.134 54.595C104.094 54.595 104.872 53.8165 104.872 52.8563C104.872 51.896 104.094 51.1175 103.134 51.1175C102.173 51.1175 101.395 51.896 101.395 52.8563C101.395 53.8165 102.173 54.595 103.134 54.595Z" fill="var(--fill-0, white)"/>
<path id="Vector_46" d="M18.2239 108.784C21.2083 108.784 23.6276 106.364 23.6276 103.38C23.6276 100.396 21.2083 97.9762 18.2239 97.9762C15.2395 97.9762 12.8201 100.396 12.8201 103.38C12.8201 106.364 15.2395 108.784 18.2239 108.784Z" fill="var(--fill-0, #D7E8F0)"/>
<path id="Vector_47" d="M16.8612 103.584C17.8215 103.584 18.5999 102.805 18.5999 101.845C18.5999 100.885 17.8215 100.106 16.8612 100.106C15.9009 100.106 15.1224 100.885 15.1224 101.845C15.1224 102.805 15.9009 103.584 16.8612 103.584Z" fill="var(--fill-0, white)"/>
<path id="Vector_48" d="M107.627 107.249C109.119 107.249 110.329 106.039 110.329 104.548C110.329 103.056 109.119 101.846 107.627 101.846C106.136 101.846 104.926 103.056 104.926 104.548C104.926 106.039 106.136 107.249 107.627 107.249Z" fill="var(--fill-0, #D7E8F0)"/>
<path id="Vector_49" d="M106.504 104.66C106.875 104.66 107.175 104.359 107.175 103.989C107.175 103.618 106.875 103.317 106.504 103.317C106.133 103.317 105.833 103.618 105.833 103.989C105.833 104.359 106.133 104.66 106.504 104.66Z" fill="var(--fill-0, white)"/>
<path id="Vector_50" d="M43.5425 16.305C44.074 16.305 44.505 15.8741 44.505 15.3425C44.505 14.8109 44.074 14.38 43.5425 14.38C43.0109 14.38 42.58 14.8109 42.58 15.3425C42.58 15.8741 43.0109 16.305 43.5425 16.305Z" fill="var(--fill-0, white)"/>
<path id="Vector_51" d="M99.4701 90.8075C104.996 90.8075 109.475 86.3281 109.475 80.8025C109.475 75.2769 104.996 70.7975 99.4701 70.7975C93.9445 70.7975 89.4651 75.2769 89.4651 80.8025C89.4651 86.3281 93.9445 90.8075 99.4701 90.8075Z" fill="var(--fill-0, white)"/>
<path id="Vector_52" d="M99.4701 88.5075C103.725 88.5075 107.175 85.0579 107.175 80.8025C107.175 76.5471 103.725 73.0975 99.4701 73.0975C95.2147 73.0975 91.7651 76.5471 91.7651 80.8025C91.7651 85.0579 95.2147 88.5075 99.4701 88.5075Z" fill="var(--fill-0, #00CCCC)"/>
<path id="Vector_53" d="M99.3751 79.2425C99.2838 78.795 100.2 78.055 100.506 77.8938C101.624 77.3088 103.34 77.75 103.953 78.8675C105.355 81.43 101.411 85.0838 99.3763 85.985C99.1413 85.7975 93.5701 81.63 94.8763 78.9625C96.1826 76.295 99.0526 77.6513 99.3751 79.2425Z" fill="var(--fill-0, white)"/>
<path id="Vector_54" d="M93 51C95.2091 48.7909 95.2091 45.2091 93 43C90.7909 40.7909 87.2091 40.7909 85 43C82.7909 45.2091 82.7909 48.7909 85 51C87.2091 53.2091 90.7909 53.2091 93 51Z" fill="var(--fill-0, #00CCCC)"/>
<path id="Vector_55" d="M86.5564 45.9714C86.5597 45.7713 86.5933 45.5728 86.6559 45.3827C86.7585 45.0492 86.9803 44.7652 87.2789 44.5847C87.5775 44.4043 87.9321 44.3401 88.275 44.4043C88.498 44.4444 88.7085 44.5361 88.8897 44.6722C89.0709 44.8083 89.2176 44.9849 89.3183 45.1879C89.5515 44.9741 89.8478 44.8418 90.1626 44.8106C90.4775 44.7794 90.7939 44.8512 91.0645 45.015C91.3352 45.1788 91.5454 45.426 91.6637 45.7194C91.7821 46.0128 91.8021 46.3366 91.7209 46.6424C91.4981 47.2956 91.0915 47.8705 90.5499 48.2982C90.2879 48.52 90.0044 48.7151 89.7036 48.8805C89.5499 48.9649 88.6884 49.4628 88.5499 49.3675C87.617 48.7117 86.5369 47.2506 86.5564 45.9714Z" fill="var(--fill-0, white)"/>
</g>
</svg>
