<svg width="151" height="114" viewBox="0 0 151 114" fill="none" xmlns="http://www.w3.org/2000/svg">
<g clip-path="url(#clip0_117_217)">
<path d="M0.428711 41.4977L1.65601 108.082L150.159 108.899L150.568 41.9055L0.428711 41.4977Z" fill="white" stroke="black" stroke-width="0.860138" stroke-linecap="round" stroke-linejoin="round"/>
<path d="M97.4307 31.3869L97.8069 34.0301L136.599 34.2189L136.558 31.0093L97.4307 31.3869Z" fill="#00CCCC" stroke="black" stroke-width="0.860138" stroke-linecap="round" stroke-linejoin="round"/>
<path d="M13.0127 30.5796V34.027H54.1121L53.7578 30.4608L13.0127 30.5796Z" fill="#00CCCC" stroke="black" stroke-width="0.860138" stroke-linecap="round" stroke-linejoin="round"/>
<path d="M53.0615 22.5957L53.3826 110.029L99.624 110.41L98.8893 22.8227L53.0615 22.5957Z" fill="#00CCCC" stroke="black" stroke-width="0.860138" stroke-linecap="round" stroke-linejoin="round"/>
<path d="M45.3613 89.5084V112.597L50.5631 112.567L50.3542 89.3914L45.3613 89.5084Z" fill="white" stroke="black" stroke-width="0.860138" stroke-linecap="round" stroke-linejoin="round"/>
<path d="M101.857 88.668L101.604 111.797L106.849 111.683L106.493 88.278L101.857 88.668Z" fill="white" stroke="black" stroke-width="0.860138" stroke-linecap="round" stroke-linejoin="round"/>
<path d="M43.9346 78.2291V89.2843L108.54 89.5364L108.416 78.4883L43.9346 78.2291Z" fill="white" stroke="black" stroke-width="0.860138" stroke-linecap="round" stroke-linejoin="round"/>
<path d="M62.6523 92.8516L62.9045 109.756L91.1038 110.308L90.8477 92.9659L62.6523 92.8516Z" fill="white" stroke="black" stroke-width="0.43005" stroke-linecap="round" stroke-linejoin="round"/>
<path d="M76.8398 93.1649L77.1462 110.056L76.8398 93.1649Z" fill="white"/>
<path d="M76.8398 93.1649L77.1462 110.056" stroke="black" stroke-width="0.43005" stroke-linecap="round" stroke-linejoin="round"/>
<path d="M70.2637 33.6538V42.2128L79.9535 41.8562V33.654L70.2637 33.6538Z" fill="white" stroke="black" stroke-width="0.43005" stroke-linecap="round" stroke-linejoin="round"/>
<path d="M113.73 50.7718L113.478 58.6175H125.959V50.4153L113.73 50.7718Z" fill="white" stroke="black" stroke-width="0.43005" stroke-linecap="round" stroke-linejoin="round"/>
<path d="M130.951 50.4142V58.26H143.433V50.0578L130.951 50.4142Z" fill="white" stroke="black" stroke-width="0.43005" stroke-linecap="round" stroke-linejoin="round"/>
<path d="M130.951 50.4142V58.26H143.433V50.0578L130.951 50.4142Z" fill="white" stroke="black" stroke-width="0.43005" stroke-linecap="round" stroke-linejoin="round"/>
<path d="M113.833 65.4975V73.5954H126.315V65.3932L113.833 65.4975Z" fill="white" stroke="black" stroke-width="0.43005" stroke-linecap="round" stroke-linejoin="round"/>
<path d="M130.951 65.3906V73.2363H143.433V65.0342L130.951 65.3906Z" fill="white" stroke="black" stroke-width="0.43005" stroke-linecap="round" stroke-linejoin="round"/>
<path d="M114.087 78.0817L113.835 86.4317H126.317V78.2295L114.087 78.0817Z" fill="white" stroke="black" stroke-width="0.43005" stroke-linecap="round" stroke-linejoin="round"/>
<path d="M130.951 78.2291V86.0748H143.433V77.8727L130.951 78.2291Z" fill="white" stroke="black" stroke-width="0.43005" stroke-linecap="round" stroke-linejoin="round"/>
<path d="M113.122 91.7827V99.6284H125.604V91.4262L113.122 91.7827Z" fill="white" stroke="black" stroke-width="0.43005" stroke-linecap="round" stroke-linejoin="round"/>
<path d="M130.24 91.4251V99.2709H142.722V91.0687L130.24 91.4251Z" fill="white" stroke="black" stroke-width="0.43005" stroke-linecap="round" stroke-linejoin="round"/>
<path d="M9.34082 47.9188V55.7645H21.8225V47.5623L9.34082 47.9188Z" fill="white" stroke="black" stroke-width="0.43005" stroke-linecap="round" stroke-linejoin="round"/>
<path d="M26.8164 47.5612V55.407H39.2981V47.2048L26.8164 47.5612Z" fill="white" stroke="black" stroke-width="0.43005" stroke-linecap="round" stroke-linejoin="round"/>
<path d="M27.0715 47.3069L26.8193 55.4048H39.301V47.2026L27.0715 47.3069Z" fill="white" stroke="black" stroke-width="0.43005" stroke-linecap="round" stroke-linejoin="round"/>
<path d="M9.69824 62.8952V70.7409H22.1799V62.5387L9.69824 62.8952Z" fill="white" stroke="black" stroke-width="0.43005" stroke-linecap="round" stroke-linejoin="round"/>
<path d="M26.8164 62.5376V70.3833H39.2981V62.1812L26.8164 62.5376Z" fill="white" stroke="black" stroke-width="0.43005" stroke-linecap="round" stroke-linejoin="round"/>
<path d="M9.69824 75.7336V83.5794H22.1799V75.3772L9.69824 75.7336Z" fill="white" stroke="black" stroke-width="0.43005" stroke-linecap="round" stroke-linejoin="round"/>
<path d="M26.8164 75.3761V83.2218H39.2981V75.0197L26.8164 75.3761Z" fill="white" stroke="black" stroke-width="0.43005" stroke-linecap="round" stroke-linejoin="round"/>
<path d="M8.9873 88.9297V96.7754H21.469V88.5732L8.9873 88.9297Z" fill="white" stroke="black" stroke-width="0.43005" stroke-linecap="round" stroke-linejoin="round"/>
<path d="M26.1055 88.5722V96.4179H38.5871V88.2157L26.1055 88.5722Z" fill="white" stroke="black" stroke-width="0.43005" stroke-linecap="round" stroke-linejoin="round"/>
<path d="M16.8274 34.2583L16.5752 41.3189H18.8447V34.2583H16.8274Z" fill="white" stroke="black" stroke-width="0.43005" stroke-linecap="round" stroke-linejoin="round"/>
<path d="M28.177 34.2583L27.9248 41.3189H30.1943V34.2583H28.177Z" fill="white" stroke="black" stroke-width="0.43005" stroke-linecap="round" stroke-linejoin="round"/>
<path d="M28.177 34.2583L27.9248 41.3189H30.1943V34.2583H28.177Z" fill="white" stroke="black" stroke-width="0.43005" stroke-linecap="round" stroke-linejoin="round"/>
<path d="M41.5393 34.509L41.2871 41.5696H43.5566V34.509H41.5393Z" fill="white" stroke="black" stroke-width="0.43005" stroke-linecap="round" stroke-linejoin="round"/>
<path d="M105.086 34.509L104.834 41.5696H107.104V34.509H105.086Z" fill="white" stroke="black" stroke-width="0.43005" stroke-linecap="round" stroke-linejoin="round"/>
<path d="M116.185 34.509L115.933 41.5696H118.202V34.509H116.185Z" fill="white" stroke="black" stroke-width="0.43005" stroke-linecap="round" stroke-linejoin="round"/>
<path d="M127.28 34.509L127.027 41.5696H129.297V34.509H127.28Z" fill="white" stroke="black" stroke-width="0.43005" stroke-linecap="round" stroke-linejoin="round"/>
<path d="M70.2637 48.2763V56.8353L80.1319 57.0136L79.9536 48.2762L70.2637 48.2763Z" fill="white" stroke="black" stroke-width="0.43005" stroke-linecap="round" stroke-linejoin="round"/>
<path d="M70.2637 61.3913V69.9502L79.9535 70.098V61.3912L70.2637 61.3913Z" fill="white" stroke="black" stroke-width="0.43005" stroke-linecap="round" stroke-linejoin="round"/>
</g>
<defs>
<clipPath id="clip0_117_217">
<rect width="151" height="113.025" fill="white"/>
</clipPath>
</defs>
</svg>
