<svg preserveAspectRatio="none" width="100%" height="100%" overflow="visible" style="display: block;" viewBox="0 0 42 51" fill="none" xmlns="http://www.w3.org/2000/svg">
<path id="Vector" d="M26.929 26.7085C25.0325 28.8944 22.8188 30.7711 20.3647 32.2733C18.4435 28.8602 15.809 26.3375 13.6986 23.1322C12.6937 21.6059 12.2551 19.7645 12.4614 17.9383C12.6361 16.6918 13.3492 15.0743 14.7465 15.0743C15.2601 15.0984 15.7583 15.2608 16.1903 15.5449C16.6224 15.829 16.9729 16.2248 17.2063 16.6918C18.532 18.4106 19.3814 20.4604 19.6661 22.6276C20.1733 20.957 20.8412 19.3415 21.6601 17.8048C22.5474 16.3038 23.9068 15.1531 25.5171 14.5401C26.0098 14.3735 26.5323 14.3191 27.0478 14.3807C27.5633 14.4422 28.0593 14.6182 28.5009 14.8962C29.1407 15.4193 29.6412 16.098 29.9564 16.8699C30.9607 20.4462 29.2141 23.8445 26.929 26.7085ZM25.1678 0.39801C19.9197 -0.646347 14.4783 0.382234 9.94619 3.27538C5.41404 6.16853 2.12996 10.7099 0.759249 15.9795C-0.671744 21.2244 -0.0650415 26.8299 2.45322 31.6305C4.97149 36.4311 9.20756 40.0575 14.2808 41.7558C15.8672 42.1119 15.8672 44.4417 14.8047 44.6198C14.2656 44.6528 13.7349 44.773 13.2328 44.976C12.6871 45.0671 12.1797 45.3196 11.7734 45.7021C11.3672 46.0846 11.0801 46.5803 10.9477 47.1277C10.7614 47.6041 10.7614 48.1352 10.9477 48.6116C11.1223 48.9678 11.297 49.502 11.4717 49.8582C11.7759 50.2103 12.129 50.5152 12.5196 50.7634C13.1981 50.9984 13.9229 51.0596 14.6301 50.9414C29.3888 49.4575 40.2758 38.5801 41.8623 24.2303C43.0849 12.5664 36.0549 2.5349 25.1678 0.39801Z" fill="var(--fill-0, black)"/>
</svg>
