<svg preserveAspectRatio="none" width="100%" height="100%" overflow="visible" style="display: block;" viewBox="0 0 23.7773 23.7773" fill="none" xmlns="http://www.w3.org/2000/svg">
<g id="Frame">
<path id="Vector" d="M11.8885 6.93505V10.8979" stroke="var(--stroke-0, #00CCCC)" stroke-width="1.98144" stroke-linecap="round" stroke-linejoin="round"/>
<path id="Vector_2" d="M13.8699 20.8051V17.833C13.8699 17.3074 13.6612 16.8035 13.2896 16.4319C12.918 16.0603 12.414 15.8515 11.8885 15.8515C11.363 15.8515 10.859 16.0603 10.4874 16.4319C10.1158 16.8035 9.90707 17.3074 9.90707 17.833V20.8051" stroke="var(--stroke-0, #00CCCC)" stroke-width="1.98144" stroke-linecap="round" stroke-linejoin="round"/>
<path id="Vector_3" d="M13.8699 8.91648H9.90707" stroke="var(--stroke-0, #00CCCC)" stroke-width="1.98144" stroke-linecap="round" stroke-linejoin="round"/>
<path id="Vector_4" d="M17.8328 10.8979H19.8143C20.3398 10.8979 20.8438 11.1067 21.2153 11.4783C21.5869 11.8499 21.7957 12.3539 21.7957 12.8794V18.8237C21.7957 19.3492 21.5869 19.8532 21.2153 20.2248C20.8438 20.5964 20.3398 20.8051 19.8143 20.8051H3.96275C3.43724 20.8051 2.93326 20.5964 2.56167 20.2248C2.19007 19.8532 1.98132 19.3492 1.98132 18.8237V9.9072C1.98132 9.38169 2.19007 8.87771 2.56167 8.50612C2.93326 8.13452 3.43724 7.92577 3.96275 7.92577H5.94419" stroke="var(--stroke-0, #00CCCC)" stroke-width="1.98144" stroke-linecap="round" stroke-linejoin="round"/>
<path id="Vector_5" d="M17.8328 20.8051V4.95361C17.8328 4.4281 17.6241 3.92411 17.2525 3.55252C16.8809 3.18093 16.3769 2.97217 15.8514 2.97217H7.92563C7.40012 2.97217 6.89613 3.18093 6.52454 3.55252C6.15295 3.92411 5.94419 4.4281 5.94419 4.95361V20.8051" stroke="var(--stroke-0, #00CCCC)" stroke-width="1.98144" stroke-linecap="round" stroke-linejoin="round"/>
</g>
</svg>
