<svg preserveAspectRatio="none" width="100%" height="100%" overflow="visible" style="display: block;" viewBox="0 0 106.544 31.3128" fill="none" xmlns="http://www.w3.org/2000/svg">
<g id="Layer 2">
<path id="Vector" d="M42.5439 23.4447H42.9546V28.7346V29.5736H42.5721L42.5439 23.4447ZM45.2725 27.2145V27.6158C45.2769 27.9203 45.2486 28.2243 45.1881 28.5218C45.1451 28.7586 45.0591 28.9839 44.9349 29.1845C44.8337 29.3457 44.6936 29.4739 44.5299 29.5554C44.3548 29.6469 44.1616 29.6907 43.9673 29.6831C43.7872 29.6862 43.6086 29.6468 43.4441 29.5676C43.2938 29.4905 43.1612 29.3783 43.0559 29.2392C42.947 29.0922 42.8632 28.9255 42.8083 28.7467C42.7441 28.55 42.7007 28.346 42.6789 28.1387V26.8071C42.702 26.5791 42.7492 26.3547 42.8196 26.1383C42.874 25.9526 42.9599 25.7794 43.0728 25.6275C43.1743 25.4876 43.3029 25.3735 43.4497 25.2931C43.6079 25.2126 43.7812 25.1731 43.956 25.1776C44.1492 25.1706 44.3413 25.2101 44.5186 25.2931C44.6817 25.3699 44.8219 25.4941 44.9237 25.6518C45.0438 25.8348 45.1298 26.0413 45.1768 26.2599C45.2428 26.573 45.2749 26.8934 45.2725 27.2145ZM44.8618 27.6158V27.2145C44.8628 26.976 44.844 26.7379 44.8055 26.5031C44.7817 26.3242 44.7243 26.1524 44.6368 25.9984C44.5629 25.8707 44.4578 25.7675 44.333 25.7005C44.1961 25.6303 44.0455 25.5969 43.8941 25.6032C43.7421 25.597 43.5912 25.6326 43.4553 25.7066C43.3382 25.7697 43.2361 25.8613 43.1571 25.9741C43.0762 26.0842 43.0117 26.2073 42.9659 26.3389C42.9218 26.4631 42.8879 26.5913 42.8646 26.722V28.1995C42.8974 28.3767 42.9563 28.5471 43.039 28.7042C43.1215 28.8613 43.2396 28.9931 43.3822 29.0872C43.5277 29.1699 43.6883 29.2171 43.8526 29.2255C44.0168 29.234 44.1808 29.2033 44.333 29.1359C44.4553 29.0645 44.5581 28.9597 44.6311 28.8318C44.7173 28.6788 44.7765 28.5097 44.8055 28.3333C44.8442 28.0964 44.863 27.8563 44.8618 27.6158ZM47.1628 29.1359L48.1867 25.2566H48.6255L47.219 30.2607C47.219 30.358 47.1515 30.4675 47.1065 30.5891C47.0621 30.7133 47.0015 30.83 46.9265 30.9356C46.8571 31.0459 46.767 31.1391 46.6621 31.2092C46.5434 31.2803 46.4095 31.3159 46.2739 31.3126H46.1164H45.9813V30.9052H46.077H46.167C46.2823 30.9116 46.3968 30.8817 46.4967 30.8191C46.5966 30.7565 46.6775 30.6639 46.7296 30.5526C46.8043 30.4201 46.8611 30.2768 46.8984 30.127L47.1628 29.1359ZM46.2458 25.2566L47.2528 28.9474L47.3653 29.4581L47.0671 29.6588L45.7788 25.2566H46.2458ZM53.6607 28.1387C53.6621 27.9961 53.6412 27.8542 53.5988 27.7192C53.5584 27.5925 53.491 27.4779 53.4019 27.3847C53.2927 27.2708 53.1673 27.1764 53.0306 27.105C52.8485 27.0065 52.6606 26.9212 52.468 26.8497C52.2585 26.7723 52.0537 26.681 51.8548 26.5761C51.6857 26.4883 51.5285 26.3758 51.3878 26.2416C51.2633 26.1145 51.1638 25.9614 51.0953 25.7917C51.0231 25.5987 50.9886 25.3917 50.994 25.1837C50.9929 24.9748 51.0312 24.768 51.1065 24.5756C51.1777 24.3925 51.2853 24.2285 51.4216 24.0953C51.56 23.9595 51.7228 23.8561 51.8998 23.7913C52.0948 23.7279 52.2984 23.7011 52.5018 23.7122C52.7928 23.7036 53.0799 23.786 53.3288 23.9494C53.5669 24.0887 53.7624 24.3 53.8914 24.5574C54.0172 24.829 54.0809 25.1292 54.077 25.433H53.6607C53.664 25.1998 53.6178 24.9689 53.5257 24.758C53.4426 24.567 53.3096 24.4063 53.1431 24.2959C52.958 24.1769 52.7452 24.1178 52.5299 24.1257C52.3192 24.1179 52.1101 24.1681 51.9223 24.2716C51.7668 24.3584 51.6393 24.4941 51.5566 24.6608C51.4725 24.822 51.4298 25.0046 51.4328 25.1897C51.4323 25.3204 51.4532 25.4501 51.4947 25.5728C51.5359 25.6941 51.6012 25.8041 51.686 25.8951C51.7973 26.0063 51.9222 26.1004 52.0573 26.1748C52.2382 26.2711 52.4264 26.3504 52.6199 26.4119C52.8412 26.4862 53.0558 26.5819 53.2613 26.6977C53.4359 26.7884 53.5956 26.9096 53.7338 27.0564C53.8589 27.1889 53.9567 27.3484 54.0207 27.5246C54.0902 27.7184 54.1246 27.9248 54.122 28.1326C54.1259 28.3541 54.0856 28.5739 54.0039 28.7771C53.9306 28.9605 53.8211 29.1245 53.6832 29.2575C53.5355 29.3872 53.368 29.4881 53.1881 29.5554C52.9844 29.6256 52.7718 29.6605 52.558 29.6588C52.3537 29.6567 52.1509 29.6219 51.956 29.5554C51.7517 29.4923 51.5607 29.387 51.3935 29.2453C51.2269 29.0999 51.094 28.9147 51.0053 28.7042C50.9001 28.4566 50.85 28.1859 50.859 27.9137H51.2809C51.2779 28.1228 51.3162 28.3301 51.3935 28.5218C51.4629 28.6786 51.5627 28.8175 51.686 28.9291C51.8079 29.029 51.945 29.1051 52.0911 29.1541C52.2397 29.1972 52.3929 29.2197 52.5468 29.221C52.753 29.2257 52.9573 29.1778 53.1431 29.0811C53.3058 29 53.4428 28.8689 53.5369 28.7042C53.6243 28.5311 53.6671 28.3358 53.6607 28.1387ZM55.3485 23.4447V29.5736H54.9378V23.4447H55.3485ZM55.2584 27.1476L55.0784 27.0321C55.0833 26.7883 55.1212 26.5465 55.1909 26.3146C55.2519 26.0961 55.3471 25.8904 55.4722 25.7066C55.5825 25.5418 55.7245 25.4049 55.8885 25.3053C56.05 25.2075 56.2323 25.1571 56.4174 25.1593C56.5716 25.1561 56.7248 25.1871 56.8674 25.2505C56.9994 25.3067 57.1143 25.4015 57.1994 25.5242C57.3047 25.6661 57.3779 25.8327 57.4132 26.0106C57.4683 26.2491 57.4948 26.4944 57.4919 26.7402V29.5554H57.0812V26.7524C57.0896 26.5169 57.0572 26.2818 56.9856 26.0592C56.9393 25.9097 56.8457 25.7826 56.7212 25.7005C56.5947 25.6288 56.4533 25.5932 56.3105 25.5971C56.1501 25.5939 55.9927 25.645 55.8604 25.7431C55.7295 25.8464 55.6186 25.9766 55.5341 26.1261C55.4439 26.2826 55.3757 26.4527 55.3316 26.6308C55.2914 26.7995 55.2724 26.9734 55.2753 27.1476H55.2584ZM60.6087 28.8014V26.4484C60.6146 26.2802 60.5817 26.113 60.513 25.9619C60.4523 25.8361 60.3528 25.7371 60.2317 25.6822C60.0873 25.618 59.9321 25.5869 59.776 25.591C59.6176 25.5874 59.4608 25.6271 59.3203 25.7066C59.1945 25.7719 59.0889 25.8755 59.0165 26.0045C58.9432 26.1387 58.9061 26.2925 58.9096 26.4484H58.5046C58.5049 26.2847 58.5375 26.123 58.6002 25.9741C58.6598 25.8206 58.7479 25.6819 58.859 25.5667C58.9758 25.4442 59.1133 25.3472 59.2641 25.2809C59.4348 25.2112 59.616 25.1761 59.7985 25.1776C60.0138 25.1743 60.2277 25.2156 60.4286 25.2992C60.611 25.379 60.7634 25.5224 60.8618 25.7066C60.9774 25.9375 61.0319 26.1983 61.0194 26.4605V28.6616C61.0205 28.8181 61.0299 28.9744 61.0475 29.1298C61.0623 29.2619 61.0887 29.3922 61.1263 29.5189V29.5736H60.6874C60.6594 29.456 60.6406 29.336 60.6312 29.2149C60.6312 29.069 60.6255 28.9291 60.6255 28.8014H60.6087ZM60.6931 27.0503V27.4334H59.9842C59.8133 27.4286 59.6427 27.4511 59.4779 27.5003C59.345 27.5377 59.2206 27.6039 59.1122 27.6948C59.0179 27.7761 58.9427 27.8802 58.8928 27.9988C58.8442 28.124 58.8193 28.2584 58.8196 28.3941C58.8138 28.5571 58.8426 28.7193 58.904 28.8683C58.9581 28.9837 59.0448 29.0774 59.1516 29.1359C59.2761 29.1923 59.4104 29.2193 59.5454 29.2149C59.7305 29.2205 59.9141 29.1767 60.0798 29.0872C60.2293 29.0059 60.3586 28.8871 60.4568 28.7406C60.5533 28.605 60.6188 28.4467 60.648 28.2785L60.7606 28.5522C60.7346 28.6848 60.689 28.8121 60.6255 28.9291C60.5547 29.0608 60.4676 29.1815 60.3668 29.2879C60.2554 29.397 60.128 29.4854 59.9898 29.5493C59.836 29.624 59.669 29.6614 59.5004 29.6588C59.3052 29.661 59.1124 29.613 58.9378 29.5189C58.7742 29.4293 58.6405 29.287 58.5552 29.1115C58.475 28.9216 58.4302 28.7164 58.4234 28.5078C58.4166 28.2991 58.4481 28.091 58.5158 27.8955C58.5769 27.728 58.6732 27.5781 58.7971 27.4577C58.9367 27.3298 59.0969 27.2308 59.2697 27.1658C59.4846 27.094 59.7086 27.0591 59.9336 27.0625L60.6931 27.0503ZM62.5496 25.968V29.5736H62.1389V25.2566H62.5383L62.5496 25.968ZM63.7142 25.2323V25.6701H63.5904H63.461C63.3175 25.6666 63.1758 25.7044 63.0503 25.7795C62.9315 25.8591 62.8314 25.9673 62.7578 26.0957C62.6738 26.2404 62.6112 26.3984 62.5721 26.5639C62.5297 26.7491 62.5052 26.9386 62.499 27.1294L62.3583 27.2023C62.3551 26.9393 62.3758 26.6766 62.4202 26.418C62.4611 26.2061 62.5293 26.0014 62.6227 25.8099C62.7079 25.6396 62.8294 25.4937 62.9772 25.3843C63.1259 25.2798 63.3005 25.2268 63.4779 25.2323C63.5227 25.2264 63.5681 25.2264 63.6129 25.2323C63.6518 25.2227 63.6922 25.2227 63.731 25.2323H63.7142ZM65.672 29.6588C65.4629 29.659 65.2554 29.6199 65.0588 29.5432C64.8758 29.4625 64.7122 29.3378 64.5806 29.1784C64.4382 29.0021 64.3327 28.7947 64.2711 28.5704C64.192 28.2887 64.154 27.9953 64.1586 27.7009V27.2023C64.1523 26.8914 64.1922 26.5814 64.2768 26.2842C64.3446 26.0602 64.4536 25.8534 64.5974 25.6762C64.7222 25.5182 64.8805 25.3951 65.0588 25.3174C65.2365 25.2359 65.4283 25.1965 65.6213 25.2019C65.8142 25.1985 66.0057 25.2378 66.1839 25.3174C66.3504 25.3936 66.4958 25.5151 66.6059 25.6701C66.729 25.8512 66.8153 26.0584 66.859 26.2781C66.9195 26.5529 66.9479 26.8348 66.9434 27.1172V27.4881H64.4118V27.0746H66.5327V26.9591C66.5345 26.7147 66.4965 26.4718 66.4202 26.2416C66.3692 26.0604 66.2644 25.9022 66.122 25.7917C65.9729 25.6773 65.7928 25.6196 65.6101 25.6275C65.4651 25.626 65.3214 25.6571 65.1881 25.7187C65.0587 25.7825 64.945 25.8783 64.8562 25.9984C64.7583 26.1489 64.6876 26.3181 64.6481 26.497C64.5993 26.7407 64.5767 26.9896 64.5806 27.2388V27.7374C64.5762 27.9669 64.6008 28.196 64.6537 28.4184C64.7017 28.5929 64.78 28.7559 64.8843 28.8987C64.9792 29.0238 65.1008 29.1219 65.2388 29.1845C65.3837 29.2468 65.5385 29.2778 65.6945 29.2757C65.8877 29.2837 66.08 29.2442 66.2571 29.1602C66.4172 29.081 66.5578 28.9623 66.6678 28.8136L66.8872 29.1115C66.8082 29.2221 66.7154 29.3203 66.6115 29.4034C66.4942 29.4962 66.3629 29.5662 66.2233 29.6101C66.0488 29.658 65.8683 29.6744 65.6888 29.6588H65.672ZM71.1741 26.8071V28.8926C71.0956 29.0015 71.007 29.1013 70.9097 29.1906C70.5398 29.5135 70.0739 29.6799 69.5988 29.6588C69.35 29.6607 69.1033 29.609 68.8731 29.5068C68.656 29.4056 68.4635 29.2516 68.3105 29.0568C68.145 28.8423 68.0207 28.5942 67.9448 28.3272C67.8527 28.0002 67.8091 27.6596 67.8154 27.3179V25.9802C67.8083 25.6457 67.8462 25.3118 67.928 24.9891C67.9953 24.7281 68.1101 24.4842 68.2655 24.2716C68.4169 24.078 68.6102 23.9276 68.8281 23.8338C69.0605 23.7332 69.3091 23.6836 69.5595 23.6879C69.8555 23.6775 70.1492 23.7464 70.4146 23.8886C70.6566 24.0223 70.8534 24.2351 70.9772 24.4966C71.1204 24.7832 71.2012 25.1014 71.2135 25.4269H70.7859C70.7701 25.1865 70.7129 24.9514 70.6171 24.7337C70.5326 24.548 70.397 24.3951 70.2289 24.2959C70.0297 24.1834 69.8067 24.1289 69.582 24.1378C69.3887 24.1356 69.197 24.1771 69.0194 24.2595C68.8571 24.3376 68.7158 24.459 68.6087 24.6121C68.4924 24.796 68.4102 25.0025 68.3668 25.2201C68.3119 25.4835 68.2855 25.7528 68.288 26.0227V27.3665C68.2833 27.6433 68.3136 27.9194 68.378 28.1873C68.4305 28.4071 68.5222 28.6137 68.6481 28.7954C68.7647 28.9513 68.9129 29.0761 69.0813 29.1602C69.2584 29.2444 69.4504 29.2859 69.6439 29.2818C69.8348 29.286 70.025 29.2552 70.2064 29.1906C70.339 29.1419 70.4641 29.0722 70.5778 28.9839C70.6518 28.9273 70.7215 28.8643 70.7859 28.7954V27.2327H69.6045V26.8071H71.1741ZM72.71 25.968V29.5736H72.2993V25.2566H72.6987L72.71 25.968ZM73.8745 25.2323V25.6701H73.7508H73.6214C73.4779 25.6666 73.3362 25.7044 73.2107 25.7795C73.0919 25.8591 72.9918 25.9673 72.9181 26.0957C72.8342 26.2404 72.7715 26.3984 72.7325 26.5639C72.69 26.7491 72.6655 26.9386 72.6593 27.1294L72.5187 27.2023C72.5155 26.9393 72.5362 26.6766 72.5806 26.418C72.6215 26.2061 72.6896 26.0014 72.7831 25.8099C72.8682 25.6396 72.9897 25.4937 73.1375 25.3843C73.2862 25.2798 73.4609 25.2268 73.6382 25.2323C73.6831 25.2264 73.7284 25.2264 73.7733 25.2323C73.8121 25.2227 73.8525 25.2227 73.8914 25.2323H73.8745ZM76.5074 28.8014V26.4484C76.5162 26.2799 76.4831 26.112 76.4118 25.9619C76.3525 25.8371 76.2551 25.7383 76.1361 25.6822C75.9917 25.618 75.8365 25.5869 75.6804 25.591C75.522 25.5874 75.3652 25.6271 75.2247 25.7066C75.0989 25.7719 74.9933 25.8755 74.9209 26.0045C74.8476 26.1387 74.8106 26.2925 74.8141 26.4484H74.4034C74.4017 26.2851 74.4324 26.1234 74.4934 25.9741C74.5546 25.8201 74.6446 25.6814 74.7578 25.5667C74.8746 25.4442 75.0121 25.3472 75.1629 25.2809C75.3424 25.2074 75.5335 25.1723 75.7254 25.1776C75.9407 25.1743 76.1546 25.2156 76.3555 25.2992C76.5379 25.379 76.6904 25.5224 76.7887 25.7066C76.9043 25.9375 76.9588 26.1983 76.9463 26.4605V28.6616C76.9474 28.8181 76.9568 28.9744 76.9744 29.1298C76.9865 29.2624 77.0129 29.393 77.0532 29.5189V29.5736H76.6143C76.5836 29.4566 76.5647 29.3363 76.5581 29.2149C76.5074 29.069 76.5074 28.9291 76.5074 28.8014ZM76.5975 27.0503V27.4334H75.8886C75.7177 27.4286 75.5471 27.4511 75.3823 27.5003C75.249 27.5363 75.1243 27.6026 75.0166 27.6948C74.9223 27.7761 74.8471 27.8802 74.7972 27.9988C74.746 28.1231 74.721 28.2581 74.724 28.3941C74.7182 28.5571 74.747 28.7193 74.8084 28.8683C74.8625 28.9837 74.9492 29.0774 75.056 29.1359C75.1805 29.1923 75.3148 29.2193 75.4498 29.2149C75.6444 29.2257 75.8382 29.1817 76.0124 29.0872C76.1618 29.0059 76.2911 28.8871 76.3893 28.7406C76.4858 28.605 76.5513 28.4467 76.5806 28.2785L76.6931 28.5522C76.6671 28.6848 76.6215 28.8121 76.5581 28.9291C76.4872 29.0608 76.4002 29.1815 76.2993 29.2879C76.1879 29.397 76.0605 29.4854 75.9224 29.5493C75.7686 29.624 75.6015 29.6614 75.4329 29.6588C75.2379 29.6594 75.0454 29.6115 74.8703 29.5189C74.7095 29.4274 74.5781 29.2854 74.4934 29.1115C74.4131 28.9216 74.3683 28.7164 74.3616 28.5078C74.3548 28.2991 74.3862 28.091 74.454 27.8955C74.5151 27.728 74.6114 27.5781 74.7353 27.4577C74.8732 27.3273 75.0339 27.2281 75.2079 27.1658C75.4209 27.0944 75.643 27.0595 75.8661 27.0625L76.5975 27.0503ZM79.3373 25.2262V25.6275H77.6495V25.2262H79.3373ZM78.2458 24.1257H78.6622V28.4913C78.6553 28.6438 78.6743 28.7963 78.7184 28.9413C78.7455 29.0273 78.8018 29.099 78.8759 29.1419C78.9412 29.1745 79.0123 29.1911 79.0841 29.1906H79.2416H79.3767V29.598C79.3181 29.6199 79.2578 29.6362 79.1966 29.6466C79.1198 29.6529 79.0427 29.6529 78.966 29.6466C78.8359 29.6485 78.7077 29.6128 78.5947 29.5432C78.4713 29.4581 78.3766 29.3323 78.3246 29.1845C78.2537 28.968 78.2213 28.7391 78.229 28.5096L78.2458 24.1257ZM80.6987 25.2262V29.5432H80.288V25.2262H80.6987ZM80.2262 24.0102C80.2237 23.9271 80.2475 23.8456 80.2937 23.7791C80.3181 23.747 80.3491 23.7215 80.3843 23.7046C80.4195 23.6877 80.4578 23.6799 80.4962 23.6818C80.5339 23.6794 80.5715 23.687 80.6059 23.7039C80.6402 23.7209 80.6702 23.7467 80.6931 23.7791C80.7436 23.8434 80.7697 23.9259 80.7663 24.0102C80.77 24.0926 80.7437 24.1733 80.6931 24.2351C80.669 24.2657 80.6387 24.2898 80.6045 24.3056C80.5704 24.3214 80.5333 24.3285 80.4962 24.3263C80.4583 24.3281 80.4205 24.3208 80.3855 24.3051C80.3506 24.2893 80.3192 24.2654 80.2937 24.2351C80.2405 24.1761 80.2086 24.0984 80.2037 24.0162L80.2262 24.0102ZM83.1404 25.2262V25.6275H81.4526V25.2262H83.1404ZM82.049 24.1257H82.4596V28.4913C82.4539 28.6442 82.4749 28.7969 82.5215 28.9413C82.5482 29.0257 82.6021 29.097 82.6734 29.1419C82.7393 29.1723 82.81 29.1888 82.8816 29.1906H83.0391H83.1741V29.598C83.1158 29.6206 83.0555 29.6369 82.9941 29.6466C82.9173 29.6531 82.8402 29.6531 82.7634 29.6466C82.6335 29.647 82.5057 29.6115 82.3921 29.5432C82.2724 29.4568 82.1817 29.331 82.1333 29.1845C82.0598 28.9688 82.0272 28.7392 82.0377 28.5096L82.049 24.1257ZM86.1558 28.5765V25.2566H86.5609V29.5736H86.1671L86.1558 28.5765ZM86.229 27.7678H86.4259C86.4297 28.0217 86.4033 28.2751 86.3471 28.5218C86.3088 28.7391 86.2304 28.9459 86.1165 29.1298C86.0159 29.2992 85.8763 29.4375 85.7114 29.5311C85.5239 29.6289 85.3175 29.6769 85.1094 29.6709C84.9535 29.6724 84.7988 29.6414 84.6537 29.5797C84.5189 29.5172 84.4009 29.4189 84.3106 29.294C84.2047 29.1462 84.1281 28.9765 84.0855 28.7954C84.0302 28.5486 84.0038 28.2953 84.0068 28.0414V25.2566H84.4175V28.0292C84.4129 28.2216 84.4319 28.4138 84.4737 28.6008C84.5039 28.7353 84.5594 28.8615 84.6369 28.9717C84.7026 29.0557 84.7854 29.1223 84.8788 29.1663C84.9681 29.2057 85.0636 29.2263 85.1601 29.2271C85.3863 29.2426 85.6101 29.1691 85.7902 29.0203C85.9504 28.8845 86.0667 28.6971 86.1221 28.4853C86.1962 28.2547 86.2324 28.0119 86.229 27.7678ZM89.8296 28.7346V23.4447H90.2403V29.5736H89.8521L89.8296 28.7346ZM87.5117 27.6158V27.2145C87.5061 26.9016 87.5364 26.5891 87.6017 26.2842C87.6525 26.066 87.7403 25.8599 87.8605 25.6762C87.9669 25.5208 88.1083 25.3973 88.2712 25.3174C88.4485 25.2344 88.6407 25.1949 88.8338 25.2019C89.0109 25.1983 89.1863 25.24 89.3457 25.3235C89.4926 25.4009 89.6215 25.5131 89.7227 25.6518C89.8302 25.8087 89.9138 25.9832 89.9702 26.1687C90.0412 26.3828 90.0884 26.6053 90.1109 26.8314V28.09C90.0891 28.2974 90.0457 28.5013 89.9815 28.6981C89.9271 28.8783 89.8411 29.0455 89.7283 29.1906C89.6262 29.3283 89.4976 29.4403 89.3514 29.5189C89.1847 29.5975 89.0044 29.6369 88.8225 29.6344C88.6377 29.6368 88.4548 29.5931 88.2881 29.5068C88.1263 29.4219 87.987 29.2943 87.883 29.1359C87.7616 28.9418 87.6739 28.7255 87.6242 28.4974C87.553 28.2097 87.5153 27.9136 87.5117 27.6158ZM87.9224 27.2145V27.6158C87.9211 27.8563 87.94 28.0964 87.9786 28.3333C88.0095 28.512 88.0706 28.683 88.1587 28.8379C88.2318 28.9641 88.3348 29.0669 88.4568 29.1359C88.5934 29.1999 88.7412 29.2311 88.89 29.2271C89.0733 29.236 89.255 29.1874 89.4132 29.0872C89.5508 28.9955 89.6649 28.868 89.7452 28.7163C89.8352 28.5568 89.8999 28.3821 89.9365 28.1995V26.7524C89.9093 26.6194 89.8716 26.4893 89.8239 26.3632C89.7801 26.2319 89.7175 26.1088 89.6383 25.9984C89.5585 25.8841 89.4542 25.7923 89.3345 25.7309C89.1986 25.6569 89.0477 25.6214 88.8957 25.6275C88.7444 25.6226 88.5941 25.6559 88.4568 25.7248C88.3348 25.7938 88.2318 25.8966 88.1587 26.0227C88.0705 26.1754 88.0094 26.3445 87.9786 26.5213C87.9413 26.7502 87.9225 26.9821 87.9224 27.2145ZM92.665 29.6466C92.4559 29.6469 92.2484 29.6078 92.0518 29.5311C91.8688 29.4504 91.7052 29.3256 91.5736 29.1663C91.4313 28.9899 91.3257 28.7826 91.2642 28.5582C91.185 28.2765 91.147 27.9831 91.1516 27.6887V27.1902C91.1453 26.8793 91.1852 26.5693 91.2698 26.272C91.3376 26.048 91.4467 25.8412 91.5905 25.664C91.7152 25.506 91.8735 25.3829 92.0518 25.3053C92.2295 25.2237 92.4214 25.1843 92.6144 25.1897C92.8072 25.1863 92.9987 25.2256 93.177 25.3053C93.3434 25.3815 93.4888 25.503 93.5989 25.6579C93.722 25.839 93.8083 26.0462 93.8521 26.266C93.9126 26.5407 93.9409 26.8226 93.9365 27.105V27.4759H91.4048V27.0625H93.5258V26.947C93.5265 26.7031 93.4904 26.4608 93.4189 26.2295C93.3635 26.0489 93.2573 25.8916 93.1151 25.7795C92.9659 25.6651 92.7859 25.6074 92.6031 25.6154C92.4582 25.6138 92.3145 25.6449 92.1812 25.7066C92.0518 25.7703 91.938 25.8662 91.8493 25.9863C91.7513 26.1367 91.6807 26.3059 91.6411 26.4848C91.5924 26.7285 91.5697 26.9774 91.5736 27.2266V27.7252C91.5692 27.9548 91.5938 28.1839 91.6467 28.4062C91.6947 28.5807 91.773 28.7437 91.8774 28.8866C91.9746 29.0089 92.0956 29.1065 92.2318 29.1723C92.3767 29.2347 92.5316 29.2656 92.6875 29.2635C92.8807 29.2716 93.0731 29.2321 93.2501 29.148C93.4102 29.0688 93.5509 28.9501 93.6608 28.8014L93.8802 29.0994C93.8012 29.2099 93.7084 29.3082 93.6045 29.3912C93.4873 29.484 93.3559 29.554 93.2163 29.598C93.0371 29.6519 92.8507 29.6725 92.665 29.6588V29.6466Z" fill="var(--fill-0, white)"/>
<path id="Vector_2" d="M29.97 8.26227V10.8646H22.7351V8.26227H29.97ZM23.4046 0.528115V19.1035H20.5354V0.528115H23.4046ZM32.2148 0.528115V19.1035H29.3568V0.528115H32.2148ZM43.3428 0.528115H46.212V13.4244C46.2628 14.6217 46.0058 15.8108 45.4694 16.8598C45.0088 17.7017 44.3165 18.367 43.4891 18.763C42.6181 19.1735 41.6769 19.3807 40.7268 19.371C39.7601 19.3833 38.8018 19.1761 37.9138 18.763C37.094 18.3687 36.4121 17.702 35.9672 16.8598C35.4535 15.8028 35.2088 14.6172 35.2584 13.4244V0.528115H38.1163V13.4244C38.0862 14.1248 38.1896 14.8243 38.4201 15.4796C38.596 15.9236 38.9162 16.2827 39.3203 16.4889C39.7697 16.6878 40.2526 16.7831 40.738 16.7686C41.218 16.7842 41.6956 16.6888 42.1389 16.4889C42.5455 16.2865 42.8668 15.9262 43.039 15.4796C43.2801 14.8272 43.3876 14.126 43.354 13.4244L43.3428 0.528115ZM50.1558 0.528115H52.7662L56.7043 14.3487L60.6424 0.528115H63.0616L57.7732 19.1035H55.6354L50.1558 0.528115ZM49.1768 0.528115H51.5847L51.9729 12.3543V19.1035H49.16L49.1768 0.528115ZM61.8351 0.528115H64.2542V19.1035H61.4413V12.3543L61.8351 0.528115ZM73.6157 3.08185L69.4582 19.1035H66.4596L71.9167 0.528115H73.7789L73.6157 3.08185ZM76.935 19.1035L72.7662 3.08185L72.5693 0.528115H74.4709L79.9505 19.1035H76.935ZM77.0025 12.2023V14.8047H68.9969V12.2023H77.0025ZM93.5539 0.528115V19.1035H90.741L84.6762 6.24361V19.1035H81.9027V0.528115H84.6762L90.7916 13.4792V0.528115H93.5539ZM105.368 7.40495V2.66838L104.209 7.40495H103.574L102.387 2.65622V7.40495H101.183V0.528115H102.657L103.861 5.39236L105.115 0.528115H106.544V7.40495H105.368ZM100.474 0.528115V1.74418H99.1742V7.39886H97.8858V1.7381H96.5413V0.522035L100.474 0.528115Z" fill="var(--fill-0, white)"/>
<path id="Vector_3" d="M10.4088 10.9435C9.6758 11.8391 8.82011 12.6081 7.87155 13.2236C7.12893 11.8251 6.11065 10.7915 5.29489 9.47811C4.90647 8.85274 4.73693 8.09826 4.81669 7.35C4.8842 6.83926 5.15987 6.1765 5.69996 6.1765C5.89847 6.18639 6.09102 6.25292 6.25802 6.36934C6.42503 6.48575 6.56052 6.64789 6.65073 6.83926C7.16316 7.54351 7.49149 8.38338 7.60151 9.27138C7.79757 8.58685 8.05574 7.92494 8.37226 7.29528C8.71521 6.68026 9.24067 6.20879 9.86312 5.95761C10.0535 5.88938 10.2555 5.86708 10.4548 5.89229C10.654 5.9175 10.8457 5.98961 11.0164 6.10354C11.2637 6.31786 11.4572 6.59595 11.579 6.91222C11.9672 8.37758 11.2921 9.76997 10.4088 10.9435ZM9.7281 0.16308C7.69952 -0.264833 5.59629 0.156616 3.84449 1.34205C2.09269 2.52748 0.823292 4.38825 0.293472 6.5474C-0.259649 8.69645 -0.0251404 10.9932 0.948242 12.9602C1.92162 14.9272 3.55899 16.4131 5.51993 17.1089C6.13315 17.2548 6.13315 18.2094 5.72246 18.2824C5.51405 18.2959 5.30896 18.3452 5.11486 18.4283C4.90393 18.4657 4.70779 18.5691 4.55077 18.7258C4.39375 18.8826 4.28277 19.0857 4.2316 19.31C4.15958 19.5052 4.15958 19.7228 4.2316 19.918C4.29911 20.0639 4.36662 20.2828 4.43413 20.4287C4.55174 20.573 4.6882 20.698 4.83919 20.7996C5.10145 20.8959 5.38161 20.921 5.65495 20.8726C11.3596 20.2646 15.5678 15.8077 16.181 9.92805C16.6536 5.14893 13.9363 1.03864 9.7281 0.16308Z" fill="var(--fill-0, white)"/>
</g>
</svg>
