<svg preserveAspectRatio="none" width="100%" height="100%" overflow="visible" style="display: block;" viewBox="0 0 92.0609 35.7898" fill="none" xmlns="http://www.w3.org/2000/svg">
<g id="Layer_1-2">
<path id="Vector" d="M65.2682 15.402C64.8675 15.8563 64.4095 16.1403 63.837 16.3107C63.2645 16.481 62.7492 16.6514 62.1767 16.7082C62.1767 16.5378 62.1767 16.4242 62.234 16.3107C62.2912 16.1403 62.3485 16.0267 62.4057 15.8563C62.463 15.686 62.5775 15.5724 62.6347 15.402C62.692 15.2884 62.8065 15.1749 62.8637 15.0613C63.0355 14.8341 63.2645 14.607 63.5507 14.4934C63.7797 14.323 64.1232 14.323 64.3522 14.3798C64.6957 14.4934 64.982 14.6637 65.211 14.8909C65.3827 15.1181 65.3827 15.2884 65.2682 15.402C65.2682 15.4588 65.2682 15.4588 65.2682 15.402ZM53.7038 13.7551C53.7038 13.9823 53.6466 14.2094 53.5893 14.4366C53.5321 14.6637 53.4748 14.8909 53.4176 15.1181C53.4176 15.1749 53.3603 15.1749 53.3031 15.1749C53.1313 15.1181 53.0168 14.9477 52.9596 14.7773C52.9023 14.4934 52.9023 14.2094 52.9596 13.9823C53.0168 13.6983 53.0741 13.4712 53.2458 13.244L53.3031 13.1872C53.3031 13.1304 53.3603 13.1304 53.3603 13.1304C53.4176 13.0736 53.4748 13.0168 53.4748 13.0168C53.4748 13.0168 53.5321 13.0736 53.5893 13.1872C53.6466 13.3008 53.6466 13.4144 53.7038 13.4712C53.7038 13.5279 53.7038 13.6415 53.7038 13.7551ZM45.8034 15.9131C45.6889 16.1403 45.5744 16.4242 45.4026 16.7082C45.2881 16.9921 45.1164 17.2193 44.9446 17.4465C44.7729 17.6736 44.6011 17.9008 44.3721 18.1279C44.1431 18.3551 43.9714 18.5255 43.6851 18.6958C43.6279 18.7526 43.5706 18.7526 43.5134 18.7526C43.3989 18.7526 43.2844 18.6958 43.2272 18.6391C42.9982 18.4119 42.8264 18.1847 42.7119 17.844C42.6547 17.6168 42.5974 17.3897 42.5974 17.1057C42.5974 16.9921 42.5974 16.8786 42.5974 16.765C42.6547 16.1403 42.8264 15.5156 43.1127 15.0045C43.2272 14.7773 43.3989 14.607 43.5706 14.4934C43.7424 14.323 43.9141 14.2662 44.1431 14.2094C44.2576 14.2094 44.3149 14.2094 44.4294 14.2662C44.7729 14.3798 45.0591 14.607 45.2881 14.8341C45.5171 15.1181 45.6889 15.402 45.8606 15.686C45.8606 15.7428 45.8606 15.8563 45.8034 15.9131ZM31.262 11.7107C31.262 11.4267 31.3192 11.1428 31.3765 10.8588C31.4337 10.5181 31.5482 10.1773 31.6627 9.83659C31.7772 9.49585 31.8917 9.2119 32.0635 8.92795C32.178 8.70079 32.3497 8.47363 32.5787 8.30326C32.636 8.24647 32.6932 8.24647 32.6932 8.24647C32.6932 8.24647 32.7505 8.30326 32.8077 8.36005C32.865 8.53042 32.865 8.644 32.9222 8.81437C32.9222 8.98474 32.9222 9.09832 32.865 9.26869C32.8077 9.49585 32.7505 9.72301 32.6932 9.89338C32.5787 10.1205 32.4642 10.3477 32.3497 10.5181C32.2352 10.7452 32.0635 10.9156 31.8917 11.086C31.72 11.2563 31.5482 11.4267 31.4337 11.5971C31.3192 11.7107 31.262 11.7107 31.262 11.7107ZM25.8233 20.9107C25.766 21.3082 25.5943 21.6489 25.3653 21.9897C25.1363 22.2736 24.7928 22.5008 24.3921 22.5576C24.2776 22.6144 24.2203 22.6144 24.1058 22.5576C23.9913 22.5008 23.8768 22.3872 23.8768 22.2736C23.8768 22.1033 23.8768 21.9329 23.9341 21.7625C24.0486 21.365 24.2776 20.9675 24.5638 20.6267C24.8501 20.286 25.1935 20.002 25.537 19.7749C25.766 20.0588 25.8805 20.4563 25.8233 20.9107ZM67.2147 15.8563C67.272 15.5724 67.3292 15.3452 67.3292 15.0613C67.272 14.5502 67.043 14.0391 66.6995 13.6415C66.356 13.3008 65.9552 13.0168 65.4972 12.7897C65.0392 12.5625 64.5812 12.4489 64.066 12.4489C63.5507 12.4489 63.0355 12.5625 62.5775 12.8465C62.1195 13.1304 61.7187 13.4712 61.3753 13.8687C61.0318 14.2662 60.7455 14.7205 60.5165 15.2316C60.2875 15.686 60.173 16.1971 60.1158 16.6514L60.0585 16.765C60.0013 16.8786 59.8868 16.9921 59.8295 17.1057L59.6005 17.4465C59.486 17.6736 59.3143 17.844 59.1425 18.0144C58.9708 18.2415 58.799 18.4119 58.57 18.5823C58.341 18.7526 58.112 18.8662 57.883 18.9798C57.654 19.0934 57.425 19.1502 57.1388 19.1502C56.967 19.1502 56.8525 19.0934 56.7953 18.9798C56.738 18.8662 56.6808 18.7526 56.6235 18.5823C56.6235 18.4687 56.5663 18.3551 56.5663 18.2415C56.5663 18.1279 56.509 18.0144 56.509 17.9008C56.3945 17.5033 56.28 17.1057 56.051 16.765C55.822 16.4242 55.5358 16.1403 55.1923 15.9131C55.1351 15.8563 55.1351 15.7996 55.1351 15.7428C55.1351 15.686 55.1923 15.686 55.1923 15.6292C55.1923 15.5724 55.1923 15.5724 55.2496 15.5156C55.593 14.7205 55.7648 13.8687 55.6503 13.0168C55.593 12.7329 55.5358 12.5057 55.4213 12.2218C55.3068 11.9946 55.1351 11.7675 54.9633 11.5403C54.7916 11.3131 54.6198 11.1428 54.3908 11.0292C54.1618 10.9156 53.8756 10.802 53.5893 10.802C53.3031 10.802 53.0741 10.8588 52.7878 10.9724C52.4443 11.086 52.1581 11.3131 51.9291 11.5403C51.7001 11.7675 51.5283 12.0514 51.3566 12.3921C51.2421 12.6761 51.1276 13.0168 51.0703 13.3576C51.0131 13.6983 51.0131 14.0391 50.9558 14.3798C50.8986 14.9477 51.0703 15.5156 51.4138 15.9699C51.5283 16.0835 51.6428 16.1971 51.7573 16.3107V16.481C51.6428 16.7082 51.5283 16.9354 51.4138 17.1625C51.2993 17.3897 51.1848 17.6168 51.0131 17.844C50.7841 18.1847 50.4978 18.5255 50.1543 18.7526L49.9826 18.8662L49.8108 18.9798C49.6963 19.0366 49.5246 19.0366 49.4101 18.9798C49.2956 18.923 49.1811 18.8662 49.0666 18.7526L49.0094 18.6391C48.9521 18.5823 48.9521 18.5255 48.9521 18.5255C48.8376 18.3551 48.7804 18.1279 48.7231 17.9008C48.6659 17.6736 48.6086 17.5033 48.6086 17.2761C48.5514 16.8786 48.4941 16.4242 48.4941 16.0267C48.4941 15.6292 48.4941 15.1749 48.5514 14.7773C48.5514 14.5502 48.5514 14.3798 48.6086 14.1526C48.6086 13.9255 48.6086 13.7551 48.6086 13.5279C48.6086 13.3008 48.4941 13.0736 48.3224 12.9033C47.9789 12.5625 47.4636 12.5057 47.0629 12.7897C46.8911 12.9033 46.7194 13.1304 46.6621 13.3576V13.4144C46.6621 13.4712 46.6621 13.4712 46.6049 13.4712H46.5476L46.4904 13.4144C46.0896 13.0168 45.6316 12.7329 45.1736 12.5057C44.9446 12.3921 44.6584 12.3354 44.4294 12.2786C44.1431 12.2218 43.9141 12.2218 43.6279 12.2786C43.2844 12.3354 42.9409 12.4489 42.6547 12.6761C42.3684 12.8465 42.0822 13.0736 41.9104 13.3008C41.6814 13.5847 41.5097 13.8119 41.3379 14.1526C41.1662 14.4366 41.0517 14.7773 40.9372 15.1181C40.7654 15.6292 40.6509 16.1971 40.6509 16.765V16.8218C40.5937 16.9354 40.5364 17.0489 40.4792 17.1625C40.4219 17.2761 40.3647 17.4465 40.3074 17.6168C40.2502 17.7872 40.1357 17.9008 40.0784 18.0144C39.9639 18.1847 39.8494 18.2983 39.6777 18.4119C39.5632 18.5255 39.3914 18.6391 39.2197 18.7526C39.1052 18.8094 38.9334 18.8662 38.7617 18.8662C38.6472 18.8662 38.5327 18.8094 38.4754 18.6958C38.4182 18.5823 38.3609 18.4687 38.3037 18.3551C38.2464 18.2415 38.2464 18.0712 38.2464 17.9576C38.2464 17.844 38.2464 17.7304 38.2464 17.6168C38.2464 17.3329 38.2464 17.0489 38.2464 16.765C38.2464 16.481 38.2464 16.1971 38.3037 15.9131C38.3037 15.686 38.3037 15.4588 38.3037 15.2316C38.3037 15.0045 38.2464 14.7773 38.1892 14.607C38.0747 14.0391 37.7312 13.5279 37.2732 13.1872C36.8152 12.8465 36.2427 12.6761 35.6702 12.6761C35.2122 12.6761 34.7542 12.7897 34.2962 12.96C33.8955 13.1304 33.4947 13.4144 33.1512 13.6983C32.8077 13.9823 32.5215 14.323 32.2352 14.7205C31.949 15.1181 31.72 15.4588 31.4337 15.8563L31.3765 15.9699C31.3765 16.0267 31.3192 16.0267 31.262 16.0835C31.262 15.7996 31.2047 15.5156 31.2047 15.2316C31.2047 14.9477 31.1475 14.6637 31.1475 14.3798C31.1475 14.2662 31.2047 14.1526 31.262 14.0958C31.8345 13.7551 32.3497 13.3576 32.865 12.8465C33.323 12.3921 33.7237 11.881 34.0672 11.3131C34.3535 10.8588 34.5252 10.4045 34.697 9.89338C34.8115 9.38227 34.8687 8.87116 34.7542 8.30326C34.697 8.0193 34.6397 7.79214 34.5252 7.56498C34.4107 7.33782 34.2962 7.11066 34.1245 6.8835C33.9527 6.71313 33.7237 6.54276 33.4947 6.42918C33.2657 6.3156 32.9795 6.20202 32.6932 6.20202C32.4642 6.20202 32.2925 6.25881 32.0635 6.3156C31.5482 6.48597 31.0902 6.82671 30.7468 7.28103C30.4033 7.73535 30.117 8.24646 29.888 8.75758C29.659 9.32548 29.4873 9.89338 29.43 10.4613C29.3155 11.0292 29.2583 11.5403 29.201 12.1082C29.1438 13.3008 29.1438 14.5502 29.2583 15.7428H29.201C29.0293 15.7996 28.8575 15.7996 28.6858 15.8563C28.2278 16.0267 27.7125 16.1971 27.2545 16.4242C26.7965 16.6514 26.3385 16.8786 25.8805 17.1057C25.8233 17.1625 25.7088 17.1625 25.5943 17.1057C25.079 16.765 24.5638 16.481 23.9913 16.3107C23.6478 16.1971 23.3043 16.0835 22.9608 15.9699L21.8731 15.686C21.7013 15.6292 21.5296 15.5724 21.3578 15.4588C21.2433 15.402 21.2433 15.3452 21.2433 15.2316V15.1749C21.2433 15.1181 21.2433 15.1181 21.3006 15.1181C21.3578 14.9477 21.4723 14.7773 21.5868 14.607C21.7013 14.4366 21.8731 14.2662 22.0448 14.0958C22.2166 13.9255 22.3883 13.8119 22.6173 13.6983C22.9036 13.5279 23.2471 13.4712 23.5906 13.5847C23.8768 13.6983 24.1631 13.9255 24.4493 14.1526C24.6211 14.323 24.7928 14.3798 25.0218 14.3798C25.2508 14.3798 25.4225 14.323 25.5943 14.1526C25.766 13.9823 25.8805 13.8119 25.8805 13.5847C25.8805 13.3576 25.8233 13.1872 25.7088 13.0168C25.4225 12.6193 25.079 12.2786 24.6211 11.9946C24.2203 11.7107 23.7051 11.5971 23.1898 11.5971C22.7318 11.5971 22.2738 11.7107 21.8731 11.881C21.4723 12.1082 21.0716 12.3354 20.7281 12.6761C20.3846 13.0168 20.0411 13.3576 19.8121 13.7551C19.5831 14.0958 19.3541 14.5502 19.2396 14.9477C19.1251 15.3452 19.1823 15.7428 19.2968 16.1403C19.4686 16.5378 19.7548 16.8218 20.0983 17.0489C20.3846 17.2193 20.6708 17.3897 20.9571 17.4465L21.6441 17.6736L22.3311 17.9008L23.0181 18.1279C23.2471 18.2415 23.5333 18.2983 23.7623 18.4687L23.6478 18.5823L23.5333 18.6958C23.0181 19.0934 22.6173 19.6045 22.2738 20.1724C21.9303 20.7403 21.7013 21.3082 21.6441 21.9897C21.5868 22.5008 21.7013 22.9551 21.9303 23.4094C22.1593 23.807 22.5601 24.1477 22.9608 24.3749C23.3043 24.4884 23.5906 24.602 23.9913 24.602C24.2203 24.602 24.5066 24.5452 24.7356 24.4884C25.8805 24.2045 26.8538 23.3526 27.2545 22.2168C27.7125 21.1378 27.598 19.9452 27.0255 18.9798C26.9683 18.923 26.9683 18.8662 26.9683 18.8662C26.9683 18.8662 27.0255 18.8094 27.0828 18.7526L27.827 18.4119L28.5713 18.0712C28.743 18.0144 28.972 17.9576 29.1438 17.9008C29.201 18.3551 29.2583 18.8094 29.3155 19.2637C29.3155 19.4341 29.3155 19.6045 29.3728 19.7749C29.3728 19.9452 29.43 20.0588 29.4873 20.1724C29.5445 20.286 29.659 20.3995 29.7735 20.5131C29.888 20.6267 30.0598 20.6835 30.2315 20.7403C30.346 20.7403 30.4605 20.7403 30.575 20.7403C30.6895 20.6835 30.804 20.6835 30.9185 20.6267C31.033 20.5699 31.1475 20.5131 31.2047 20.3996C31.3192 20.3428 31.3765 20.2292 31.3765 20.1156C31.4337 20.002 31.491 19.8884 31.491 19.7749C31.6055 19.4909 31.6627 19.2637 31.7772 18.9798C31.8917 18.6958 32.0062 18.4687 32.1207 18.1847C32.2352 17.9576 32.3497 17.7304 32.5215 17.3897C32.6932 17.1057 32.865 16.8218 33.094 16.5378C33.2657 16.2539 33.4947 15.9699 33.7237 15.7428C33.8955 15.5156 34.1245 15.2884 34.3535 15.1181C34.5252 15.0045 34.697 14.8909 34.926 14.8341C35.0977 14.7773 35.3267 14.7773 35.5557 14.8341C35.6702 14.8341 35.7847 14.8909 35.842 15.0045C35.8992 15.1181 35.8992 15.2316 35.9565 15.3452C36.0137 15.6292 36.0137 15.8563 35.9565 16.1403C35.9565 16.4242 35.9565 16.6514 35.9565 16.9354C35.9565 17.2193 35.9565 17.4465 35.9565 17.7304C35.9565 18.0144 36.0137 18.2983 36.0137 18.5823C36.071 18.8662 36.1282 19.1502 36.1855 19.3773C36.3572 19.8316 36.6435 20.2292 37.0442 20.5699C37.4449 20.8539 37.9029 21.0242 38.4182 21.0242C38.7617 21.0242 39.1052 20.9675 39.3914 20.8539C39.7349 20.7403 40.0212 20.5699 40.3074 20.3428C40.5937 20.1156 40.8227 19.8884 41.0517 19.6613C41.1662 19.8316 41.3379 20.0588 41.5097 20.2292C41.7387 20.4563 41.9677 20.5699 42.2539 20.7403C42.5402 20.8539 42.8837 20.9107 43.1699 20.9107C43.5134 20.9107 43.8569 20.8539 44.1431 20.6835C44.4294 20.5131 44.7729 20.3428 45.0019 20.1156C45.2881 19.8884 45.5171 19.6613 45.7461 19.3773C45.9751 19.0934 46.1469 18.8662 46.3186 18.5823C46.3186 18.5823 46.3759 18.5255 46.3759 18.4687C46.3759 18.4119 46.4331 18.4119 46.4331 18.4119V18.4687V18.5255C46.5476 18.8662 46.6621 19.207 46.8339 19.4909C47.0056 19.7749 47.1774 20.0588 47.4064 20.3428C47.6354 20.5699 47.9216 20.7971 48.2079 20.9107C48.5514 21.081 48.8949 21.1378 49.2956 21.1378C49.5818 21.1378 49.9253 21.081 50.2116 20.9675C50.4978 20.8539 50.7841 20.7403 51.0131 20.5699C51.2421 20.3996 51.4711 20.2292 51.7001 20.002C51.9291 19.7749 52.1008 19.5477 52.2726 19.3205C52.3871 19.207 52.4443 19.0366 52.6161 18.8094C52.7306 18.6391 52.8451 18.4119 52.9596 18.1847C53.0741 17.9576 53.1886 17.7872 53.2458 17.56V17.5033C53.3603 17.56 53.5321 17.6168 53.6466 17.6736C53.9901 17.7872 54.2191 18.0712 54.2763 18.3551L54.3908 18.7526L54.5053 19.1502C54.6198 19.7181 54.9061 20.2292 55.2496 20.6835C55.6503 21.081 56.2228 21.3082 56.7953 21.3082C57.0815 21.3082 57.3105 21.3082 57.5968 21.2514C57.883 21.1946 58.112 21.1378 58.341 21.0242C58.7418 20.8539 59.0853 20.6835 59.4288 20.3996C59.715 20.1724 60.0013 19.8884 60.2875 19.6045L60.6883 19.3205C60.86 19.6045 61.089 19.8884 61.3753 20.0588C62.2912 20.8539 63.4362 21.2514 64.6385 21.1946C64.9247 21.1946 65.211 21.1946 65.5545 21.1378C65.8407 21.081 66.127 21.0242 66.4132 20.9675C66.9285 20.8539 67.4437 20.6835 67.9589 20.4563C68.3597 20.286 68.7604 20.0588 69.1612 19.7749C69.5619 19.4909 69.9054 19.207 70.1917 18.923C70.5352 18.5823 70.8787 18.2415 71.2794 17.7872V17.7304V17.6736C71.3939 17.56 71.4512 17.3897 71.4512 17.2193C71.4512 17.0489 71.4512 16.9354 71.3939 16.765C71.3367 16.6514 71.2794 16.481 71.1649 16.4242C71.0504 16.3107 70.9359 16.2539 70.7642 16.1971C70.4207 16.0835 70.0199 16.1971 69.7337 16.481C69.6192 16.5946 69.5047 16.765 69.3902 16.8786C69.2757 16.9921 69.1612 17.1625 69.0467 17.2761C68.5314 17.844 67.9589 18.2983 67.272 18.6391C66.585 18.923 65.8407 19.1502 65.0965 19.2637C64.4095 19.3773 63.6652 19.2637 63.0355 18.923C62.8637 18.8662 62.7492 18.7526 62.6347 18.6391H62.7492H62.8065C63.5507 18.5255 64.295 18.2983 64.9247 18.0144C65.6117 17.7304 66.1842 17.2761 66.6995 16.6514C66.8712 16.4242 67.043 16.1403 67.1002 15.8563M76.6036 8.47363C75.9739 9.15511 75.2869 9.7798 74.4854 10.2341C73.8557 9.15511 72.9969 8.36005 72.3099 7.33782C71.9664 6.82671 71.8519 6.25881 71.9092 5.69091C71.9664 5.29338 72.1954 4.78227 72.6534 4.78227C72.9969 4.78227 73.2832 5.00943 73.4549 5.29338C73.9129 5.86128 74.1419 6.48597 74.2564 7.16745C74.4281 6.65634 74.5999 6.14523 74.8861 5.63412C75.1724 5.1798 75.6304 4.78227 76.1456 4.6119C76.4891 4.49832 76.8326 4.55511 77.1189 4.72548C77.3479 4.89585 77.4624 5.12301 77.5769 5.35017C77.9204 6.48597 77.3479 7.56498 76.6036 8.47363ZM76.0311 0.125478C72.4817 -0.556003 68.9894 1.60202 68.0734 5.06622C67.1002 8.53042 69.0467 12.1082 72.4817 13.244C72.9969 13.3576 72.9969 14.0958 72.6534 14.1526C72.4817 14.1526 72.3099 14.2094 72.1382 14.2662C71.7947 14.323 71.4512 14.607 71.3939 14.9477C71.3367 15.1181 71.3367 15.2317 71.3939 15.402C71.4512 15.5156 71.5084 15.686 71.5657 15.7996C71.6802 15.9131 71.7947 16.0267 71.9092 16.0835C72.1382 16.1403 72.3672 16.1971 72.5962 16.1403C77.4051 15.686 80.9546 12.2218 81.4698 7.67856C81.8706 3.98721 79.5806 0.806959 76.0311 0.125478Z" fill="var(--fill-0, #6C7070)"/>
<path id="Vector_2" d="M87.6527 33.2342V30.9058H91.2022V28.5206H87.6527V26.249H91.8892V23.8638H85.0765V35.5626H92.0609V33.1774H87.6527V33.2342ZM75.1723 33.1774V26.3626H77.0043C79.008 26.3626 80.0385 27.7824 80.0385 29.77C80.0385 31.7577 79.008 33.1774 77.0043 33.1774H75.1723ZM72.5388 35.6194H77.1188C80.2675 35.6194 82.7865 33.1774 82.7865 29.77C82.7865 26.3626 80.2675 23.9206 77.1188 23.9206H72.5388V35.6194ZM65.4399 35.7898C67.9589 35.7898 70.0199 34.1996 70.0199 31.1898V23.9206H67.3864V31.1898C67.3864 32.9503 66.2986 33.3478 65.4399 33.3478C64.5812 33.3478 63.4934 32.9503 63.4934 31.1898V23.9206H60.8599V31.1898C60.8599 34.1996 62.9209 35.7898 65.4399 35.7898ZM58.7417 23.9206H50.6123V26.3058H53.3602V35.6194H55.9937V26.3058H58.7417V23.9206ZM45.8606 35.6194H48.494V23.9206H45.8606V35.6194ZM43.7423 23.9206H35.6701V26.3058H38.3609V35.6194H40.9943V26.3058H43.7423V23.9206ZM28.5712 31.3601L30.0597 27.1577L31.5482 31.3601H28.5712ZM33.1512 35.6194H36.0136L31.4909 23.9206H28.6857L24.163 35.6194H27.0255L27.7125 33.7453H32.5214L33.1512 35.6194ZM16.606 26.3058H17.98C19.0678 26.3058 19.812 26.7033 19.812 27.9527C19.812 29.2021 19.0105 29.5996 17.98 29.5996H16.606V26.3058ZM20.3845 35.6194H23.1325L20.4418 31.4169C21.7585 30.7922 22.56 29.4293 22.5027 28.0095C22.5027 25.5108 20.7853 23.9774 18.2663 23.9774H13.9726V35.6762H16.606V31.8145H18.0373L20.3845 35.6194ZM11.5108 29.2021H6.35837V31.3601H8.99185C8.7056 32.6095 7.56061 33.5182 6.24387 33.4046C4.24014 33.4046 2.75165 31.9848 2.75165 29.77C2.63715 27.9527 4.06839 26.3626 5.90038 26.249C6.01488 26.249 6.12937 26.249 6.24387 26.249C7.38886 26.1922 8.53385 26.7601 9.1636 27.7256L11.0528 26.4194C10.0796 24.7157 8.19036 23.6935 6.24387 23.7503C2.86615 23.7503 0.00367319 26.0787 0.00367319 29.77C-0.110826 33.007 2.4654 35.6762 5.78588 35.7898C5.90038 35.7898 6.01487 35.7898 6.12937 35.7898C9.3926 35.7898 12.1406 33.3478 11.5108 29.2021Z" fill="var(--fill-0, #091F48)"/>
</g>
</svg>
