<svg preserveAspectRatio="none" width="100%" height="100%" overflow="visible" style="display: block;" viewBox="0 0 103.068 40.0133" fill="none" xmlns="http://www.w3.org/2000/svg">
<g id="Layer_1-2">
<path id="Vector" d="M73.072 17.2196C72.6233 17.7276 72.1106 18.045 71.4696 18.2355C70.8287 18.426 70.2518 18.6164 69.6109 18.6799C69.6109 18.4895 69.6109 18.3625 69.675 18.2355C69.7391 18.045 69.8032 17.918 69.8673 17.7276C69.9313 17.5371 70.0595 17.4101 70.1236 17.2196C70.1877 17.0926 70.3159 16.9657 70.38 16.8387C70.5723 16.5847 70.8287 16.3307 71.1491 16.2038C71.4055 16.0133 71.7901 16.0133 72.0465 16.0768C72.431 16.2037 72.7515 16.3942 73.0079 16.6482C73.2002 16.9022 73.2002 17.0926 73.072 17.2196C73.072 17.2831 73.072 17.2831 73.072 17.2196ZM60.1249 15.3784C60.1249 15.6323 60.0608 15.8863 59.9967 16.1403C59.9326 16.3942 59.8685 16.6482 59.8044 16.9022C59.8044 16.9657 59.7403 16.9657 59.6762 16.9657C59.4839 16.9022 59.3557 16.7117 59.2916 16.5212C59.2275 16.2038 59.2275 15.8863 59.2916 15.6323C59.3557 15.3149 59.4198 15.0609 59.6121 14.8069L59.6762 14.7434C59.6762 14.6799 59.7403 14.6799 59.7403 14.6799C59.8044 14.6164 59.8685 14.553 59.8685 14.553C59.8685 14.553 59.9326 14.6164 59.9967 14.7434C60.0608 14.8704 60.0608 14.9974 60.1249 15.0609C60.1249 15.1244 60.1249 15.2514 60.1249 15.3784ZM51.2798 17.7911C51.1516 18.045 51.0234 18.3625 50.8312 18.6799C50.703 18.9974 50.5107 19.2514 50.3184 19.5053C50.1261 19.7593 49.9338 20.0133 49.6775 20.2672C49.4211 20.5212 49.2288 20.7117 48.9083 20.9022C48.8442 20.9657 48.7801 20.9657 48.716 20.9657C48.5878 20.9657 48.4597 20.9022 48.3956 20.8387C48.1392 20.5847 47.9469 20.3307 47.8187 19.9498C47.7546 19.6958 47.6905 19.4418 47.6905 19.1244C47.6905 18.9974 47.6905 18.8704 47.6905 18.7434C47.7546 18.045 47.9469 17.3466 48.2674 16.7752C48.3956 16.5212 48.5878 16.3307 48.7801 16.2038C48.9724 16.0133 49.1647 15.9498 49.4211 15.8863C49.5493 15.8863 49.6134 15.8863 49.7415 15.9498C50.1261 16.0768 50.4466 16.3307 50.703 16.5847C50.9593 16.9022 51.1516 17.2196 51.3439 17.5371C51.3439 17.6006 51.3439 17.7276 51.2798 17.7911ZM34.9998 13.0926C34.9998 12.7752 35.0639 12.4577 35.128 12.1403C35.1921 11.7593 35.3203 11.3784 35.4485 10.9974C35.5766 10.6164 35.7048 10.299 35.8971 9.98153C36.0253 9.72756 36.2176 9.47359 36.474 9.28312C36.5381 9.21962 36.6022 9.21962 36.6022 9.21962C36.6022 9.21962 36.6663 9.28312 36.7303 9.34661C36.7944 9.53708 36.7944 9.66407 36.8585 9.85454C36.8585 10.045 36.8585 10.172 36.7944 10.3625C36.7304 10.6164 36.6663 10.8704 36.6022 11.0609C36.474 11.3149 36.3458 11.5688 36.2176 11.7593C36.0894 12.0133 35.8971 12.2038 35.7048 12.3942C35.5126 12.5847 35.3203 12.7752 35.1921 12.9657C35.0639 13.0926 34.9998 13.0926 34.9998 13.0926ZM28.9108 23.3784C28.8467 23.8228 28.6544 24.2038 28.3981 24.5847C28.1417 24.9022 27.7571 25.1561 27.3084 25.2196C27.1803 25.2831 27.1162 25.2831 26.988 25.2196C26.8598 25.1561 26.7316 25.0291 26.7316 24.9022C26.7316 24.7117 26.7316 24.5212 26.7957 24.3307C26.9239 23.8863 27.1803 23.4418 27.5007 23.0609C27.8212 22.6799 28.2058 22.3625 28.5903 22.1085C28.8467 22.426 28.9749 22.8704 28.9108 23.3784ZM75.2512 17.7276C75.3153 17.4101 75.3794 17.1561 75.3794 16.8387C75.3153 16.2672 75.0589 15.6958 74.6743 15.2514C74.2898 14.8704 73.8411 14.553 73.3284 14.299C72.8156 14.045 72.3028 13.918 71.726 13.918C71.1491 13.918 70.5723 14.045 70.0595 14.3625C69.5468 14.6799 69.0981 15.0609 68.7135 15.5053C68.329 15.9498 68.0085 16.4577 67.7521 17.0291C67.4957 17.5371 67.3676 18.1085 67.3035 18.6164L67.2394 18.7434C67.1753 18.8704 67.0471 18.9974 66.983 19.1244L66.7266 19.5053C66.5984 19.7593 66.4061 19.9498 66.2139 20.1403C66.0216 20.3942 65.8293 20.5847 65.5729 20.7752C65.3165 20.9657 65.0602 21.0926 64.8038 21.2196C64.5474 21.3466 64.291 21.4101 63.9706 21.4101C63.7783 21.4101 63.6501 21.3466 63.586 21.2196C63.5219 21.0926 63.4578 20.9657 63.3937 20.7752C63.3937 20.6482 63.3296 20.5212 63.3296 20.3942C63.3296 20.2672 63.2655 20.1403 63.2655 20.0133C63.1373 19.5688 63.0091 19.1244 62.7528 18.7434C62.4964 18.3625 62.1759 18.045 61.7913 17.7911C61.7272 17.7276 61.7272 17.6641 61.7272 17.6006C61.7272 17.5371 61.7913 17.5371 61.7913 17.4736C61.7913 17.4101 61.7913 17.4101 61.8554 17.3466C62.24 16.4577 62.4323 15.5053 62.3041 14.553C62.24 14.2355 62.1759 13.9815 62.0477 13.6641C61.9195 13.4101 61.7272 13.1561 61.535 12.9022C61.3427 12.6482 61.1504 12.4577 60.894 12.3307C60.6376 12.2038 60.3172 12.0768 59.9967 12.0768C59.6762 12.0768 59.4198 12.1403 59.0994 12.2672C58.7148 12.3942 58.3943 12.6482 58.1379 12.9022C57.8816 13.1561 57.6893 13.4736 57.497 13.8545C57.3688 14.172 57.2406 14.553 57.1765 14.9339C57.1124 15.3149 57.1124 15.6958 57.0483 16.0768C56.9842 16.7117 57.1765 17.3466 57.5611 17.8545C57.6893 17.9815 57.8175 18.1085 57.9457 18.2355V18.426C57.8175 18.6799 57.6893 18.9339 57.5611 19.1879C57.4329 19.4418 57.3047 19.6958 57.1124 19.9498C56.856 20.3307 56.5356 20.7117 56.151 20.9657L55.9587 21.0926L55.7664 21.2196C55.6383 21.2831 55.446 21.2831 55.3178 21.2196C55.1896 21.1561 55.0614 21.0926 54.9332 20.9657L54.8691 20.8387C54.805 20.7752 54.805 20.7117 54.805 20.7117C54.6768 20.5212 54.6127 20.2672 54.5486 20.0133C54.4845 19.7593 54.4205 19.5688 54.4205 19.3149C54.3564 18.8704 54.2923 18.3625 54.2923 17.918C54.2923 17.4736 54.2923 16.9657 54.3564 16.5212C54.3564 16.2672 54.3564 16.0768 54.4205 15.8228C54.4205 15.5688 54.4205 15.3784 54.4205 15.1244C54.4205 14.8704 54.2923 14.6164 54.1 14.426C53.7154 14.045 53.1386 13.9815 52.6899 14.299C52.4976 14.426 52.3053 14.6799 52.2412 14.9339V14.9974C52.2412 15.0609 52.2412 15.0609 52.1771 15.0609H52.1131L52.049 14.9974C51.6003 14.553 51.0875 14.2355 50.5748 13.9815C50.3184 13.8545 49.9979 13.7911 49.7415 13.7276C49.4211 13.6641 49.1647 13.6641 48.8442 13.7276C48.4597 13.7911 48.0751 13.918 47.7546 14.172C47.4341 14.3625 47.1137 14.6164 46.9214 14.8704C46.665 15.1879 46.4727 15.4418 46.2804 15.8228C46.0882 16.1403 45.96 16.5212 45.8318 16.9022C45.6395 17.4736 45.5113 18.1085 45.5113 18.7434V18.8069C45.4472 18.9339 45.3831 19.0609 45.319 19.1879C45.2549 19.3149 45.1908 19.5053 45.1267 19.6958C45.0626 19.8863 44.9345 20.0133 44.8704 20.1403C44.7422 20.3307 44.614 20.4577 44.4217 20.5847C44.2935 20.7117 44.1012 20.8387 43.9089 20.9657C43.7808 21.0291 43.5885 21.0926 43.3962 21.0926C43.268 21.0926 43.1398 21.0291 43.0757 20.9022C43.0116 20.7752 42.9475 20.6482 42.8834 20.5212C42.8193 20.3942 42.8193 20.2038 42.8193 20.0768C42.8193 19.9498 42.8193 19.8228 42.8193 19.6958C42.8193 19.3784 42.8193 19.0609 42.8193 18.7434C42.8193 18.426 42.8193 18.1085 42.8834 17.7911C42.8834 17.5371 42.8834 17.2831 42.8834 17.0291C42.8834 16.7752 42.8193 16.5212 42.7552 16.3307C42.627 15.6958 42.2425 15.1244 41.7297 14.7434C41.217 14.3625 40.576 14.172 39.9351 14.172C39.4223 14.172 38.9096 14.299 38.3968 14.4895C37.9481 14.6799 37.4995 14.9974 37.1149 15.3149C36.7304 15.6323 36.4099 16.0133 36.0894 16.4577C35.7689 16.9022 35.5126 17.2831 35.1921 17.7276L35.128 17.8545C35.128 17.918 35.0639 17.918 34.9998 17.9815C34.9998 17.6641 34.9357 17.3466 34.9357 17.0291C34.9357 16.7117 34.8716 16.3942 34.8716 16.0768C34.8716 15.9498 34.9357 15.8228 34.9998 15.7593C35.6407 15.3784 36.2176 14.9339 36.7944 14.3625C37.3072 13.8545 37.7559 13.2831 38.1404 12.6482C38.4609 12.1403 38.6532 11.6323 38.8455 11.0609C38.9737 10.4895 39.0378 9.91804 38.9096 9.28312C38.8455 8.96566 38.7814 8.71169 38.6532 8.45772C38.525 8.20375 38.3968 7.94978 38.2045 7.69581C38.0122 7.50534 37.7559 7.31486 37.4995 7.18788C37.2431 7.06089 36.9226 6.93391 36.6022 6.93391C36.3458 6.93391 36.1535 6.9974 35.8971 7.06089C35.3203 7.25137 34.8075 7.63232 34.4229 8.14026C34.0384 8.6482 33.7179 9.21962 33.4615 9.79105C33.2051 10.426 33.0129 11.0609 32.9488 11.6958C32.8206 12.3307 32.7565 12.9022 32.6924 13.5371C32.6283 14.8704 32.6283 16.2672 32.7565 17.6006H32.6924C32.5001 17.6641 32.3078 17.6641 32.1155 17.7276C31.6028 17.918 31.0259 18.1085 30.5132 18.3625C30.0004 18.6164 29.4877 18.8704 28.9749 19.1244C28.9108 19.1879 28.7826 19.1879 28.6544 19.1244C28.0776 18.7434 27.5007 18.426 26.8598 18.2355C26.4752 18.1085 26.0906 17.9815 25.7061 17.8545L24.4883 17.5371C24.296 17.4736 24.1037 17.4101 23.9114 17.2831C23.7832 17.2196 23.7832 17.1561 23.7832 17.0291V16.9657C23.7832 16.9022 23.7832 16.9022 23.8473 16.9022C23.9114 16.7117 24.0396 16.5212 24.1678 16.3307C24.296 16.1403 24.4883 15.9498 24.6806 15.7593C24.8729 15.5688 25.0651 15.4418 25.3215 15.3149C25.642 15.1244 26.0266 15.0609 26.4111 15.1879C26.7316 15.3149 27.0521 15.5688 27.3725 15.8228C27.5648 16.0133 27.7571 16.0768 28.0135 16.0768C28.2699 16.0768 28.4621 16.0133 28.6544 15.8228C28.8467 15.6323 28.9749 15.4418 28.9749 15.1879C28.9749 14.9339 28.9108 14.7434 28.7826 14.553C28.4621 14.1085 28.0776 13.7276 27.5648 13.4101C27.1162 13.0926 26.5393 12.9657 25.9625 12.9657C25.4497 12.9657 24.9369 13.0926 24.4883 13.2831C24.0396 13.5371 23.591 13.7911 23.2064 14.172C22.8218 14.553 22.4373 14.9339 22.1809 15.3784C21.9245 15.7593 21.6681 16.2672 21.5399 16.7117C21.4117 17.1561 21.4758 17.6006 21.604 18.045C21.7963 18.4895 22.1168 18.8069 22.5014 19.0609C22.8218 19.2514 23.1423 19.4418 23.4628 19.5053L24.2319 19.7593L25.001 20.0133L25.7702 20.2672C26.0266 20.3942 26.347 20.4577 26.6034 20.6482L26.4752 20.7752L26.347 20.9022C25.7702 21.3466 25.3215 21.918 24.9369 22.553C24.5524 23.1879 24.296 23.8228 24.2319 24.5847C24.1678 25.1561 24.296 25.6641 24.5524 26.172C24.8088 26.6164 25.2574 26.9974 25.7061 27.2514C26.0906 27.3784 26.4111 27.5053 26.8598 27.5053C27.1162 27.5053 27.4366 27.4418 27.693 27.3784C28.9749 27.0609 30.0645 26.1085 30.5132 24.8387C31.0259 23.6323 30.8977 22.299 30.2568 21.2196C30.1927 21.1561 30.1927 21.0926 30.1927 21.0926C30.1927 21.0926 30.2568 21.0291 30.3209 20.9657L31.1541 20.5847L31.9874 20.2037C32.1796 20.1403 32.436 20.0768 32.6283 20.0133C32.6924 20.5212 32.7565 21.0291 32.8206 21.5371C32.8206 21.7276 32.8206 21.918 32.8847 22.1085C32.8847 22.299 32.9488 22.426 33.0129 22.553C33.077 22.6799 33.2051 22.8069 33.3333 22.9339C33.4615 23.0609 33.6538 23.1244 33.8461 23.1879C33.9743 23.1879 34.1025 23.1879 34.2307 23.1879C34.3589 23.1244 34.487 23.1244 34.6152 23.0609C34.7434 22.9974 34.8716 22.9339 34.9357 22.8069C35.0639 22.7434 35.128 22.6164 35.128 22.4895C35.1921 22.3625 35.2562 22.2355 35.2562 22.1085C35.3844 21.7911 35.4485 21.5371 35.5766 21.2196C35.7048 20.9022 35.833 20.6482 35.9612 20.3307C36.0894 20.0768 36.2176 19.8228 36.4099 19.4418C36.6022 19.1244 36.7944 18.8069 37.0508 18.4895C37.2431 18.172 37.4995 17.8545 37.7559 17.6006C37.9481 17.3466 38.2045 17.0926 38.4609 16.9022C38.6532 16.7752 38.8455 16.6482 39.1018 16.5847C39.2941 16.5212 39.5505 16.5212 39.8069 16.5847C39.9351 16.5847 40.0633 16.6482 40.1274 16.7752C40.1915 16.9022 40.1915 17.0291 40.2556 17.1561C40.3196 17.4736 40.3196 17.7276 40.2556 18.045C40.2556 18.3625 40.2556 18.6164 40.2556 18.9339C40.2556 19.2514 40.2556 19.5053 40.2556 19.8228C40.2556 20.1403 40.3196 20.4577 40.3196 20.7752C40.3837 21.0926 40.4478 21.4101 40.5119 21.6641C40.7042 22.172 41.0247 22.6164 41.4733 22.9974C41.922 23.3149 42.4348 23.5053 43.0116 23.5053C43.3962 23.5053 43.7808 23.4418 44.1012 23.3149C44.4858 23.1879 44.8063 22.9974 45.1267 22.7434C45.4472 22.4895 45.7036 22.2355 45.96 21.9815C46.0882 22.172 46.2804 22.426 46.4727 22.6164C46.7291 22.8704 46.9855 22.9974 47.306 23.1879C47.6264 23.3149 48.011 23.3784 48.3315 23.3784C48.716 23.3784 49.1006 23.3149 49.4211 23.1244C49.7415 22.9339 50.1261 22.7434 50.3825 22.4895C50.703 22.2355 50.9593 21.9815 51.2157 21.6641C51.4721 21.3466 51.6644 21.0926 51.8567 20.7752C51.8567 20.7752 51.9208 20.7117 51.9208 20.6482C51.9208 20.5847 51.9849 20.5847 51.9849 20.5847V20.6482V20.7117C52.113 21.0926 52.2412 21.4736 52.4335 21.7911C52.6258 22.1085 52.8181 22.426 53.0745 22.7434C53.3308 22.9974 53.6513 23.2514 53.9718 23.3784C54.3564 23.5688 54.7409 23.6323 55.1896 23.6323C55.5101 23.6323 55.8946 23.5688 56.2151 23.4418C56.5356 23.3149 56.856 23.1879 57.1124 22.9974C57.3688 22.8069 57.6252 22.6164 57.8816 22.3625C58.1379 22.1085 58.3302 21.8545 58.5225 21.6006C58.6507 21.4736 58.7148 21.2831 58.9071 21.0291C59.0353 20.8387 59.1635 20.5847 59.2916 20.3307C59.4198 20.0768 59.548 19.8863 59.6121 19.6323V19.5688C59.7403 19.6323 59.9326 19.6958 60.0608 19.7593C60.4453 19.8863 60.7017 20.2037 60.7658 20.5212L60.894 20.9657L61.0222 21.4101C61.1504 22.045 61.4709 22.6164 61.8554 23.1244C62.3041 23.5688 62.945 23.8228 63.586 23.8228C63.9065 23.8228 64.1628 23.8228 64.4833 23.7593C64.8038 23.6958 65.0602 23.6323 65.3165 23.5053C65.7652 23.3149 66.1498 23.1244 66.5343 22.8069C66.8548 22.553 67.1753 22.2355 67.4958 21.918L67.9444 21.6006C68.1367 21.918 68.3931 22.2355 68.7135 22.426C69.7391 23.3149 71.021 23.7593 72.3669 23.6958C72.6874 23.6958 73.0079 23.6958 73.3925 23.6323C73.7129 23.5688 74.0334 23.5053 74.3539 23.4418C74.9307 23.3149 75.5076 23.1244 76.0844 22.8704C76.5331 22.6799 76.9818 22.426 77.4304 22.1085C77.8791 21.7911 78.2636 21.4736 78.5841 21.1561C78.9687 20.7752 79.3532 20.3942 79.8019 19.8863V19.8228V19.7593C79.9301 19.6323 79.9942 19.4418 79.9942 19.2514C79.9942 19.0609 79.9942 18.9339 79.9301 18.7434C79.866 18.6164 79.8019 18.426 79.6737 18.3625C79.5455 18.2355 79.4173 18.172 79.2251 18.1085C78.8405 17.9815 78.3918 18.1085 78.0714 18.426C77.9432 18.553 77.815 18.7434 77.6868 18.8704C77.5586 18.9974 77.4304 19.1879 77.3022 19.3149C76.7254 19.9498 76.0844 20.4577 75.3153 20.8387C74.5462 21.1561 73.7129 21.4101 72.8797 21.5371C72.1106 21.6641 71.2773 21.5371 70.5723 21.1561C70.38 21.0926 70.2518 20.9657 70.1236 20.8387H70.2518H70.3159C71.1491 20.7117 71.9824 20.4577 72.6874 20.1403C73.4565 19.8228 74.0975 19.3149 74.6743 18.6164C74.8666 18.3625 75.0589 18.045 75.123 17.7276M85.7627 9.47359C85.0577 10.2355 84.2885 10.9339 83.3912 11.4418C82.6862 10.2355 81.7248 9.34661 80.9556 8.20375C80.571 7.63232 80.4429 6.9974 80.507 6.36248C80.571 5.91804 80.8274 5.34661 81.3402 5.34661C81.7247 5.34661 82.0452 5.60058 82.2375 5.91804C82.7503 6.55296 83.0066 7.25137 83.1348 8.01327C83.3271 7.44185 83.5194 6.87042 83.8399 6.29899C84.1603 5.79105 84.6731 5.34661 85.25 5.15613C85.6345 5.02915 86.0191 5.09264 86.3396 5.28312C86.5959 5.47359 86.7241 5.72756 86.8523 5.98153C87.2369 7.25137 86.5959 8.45772 85.7627 9.47359ZM85.1218 0.140259C81.1479 -0.621646 77.2381 1.79105 76.2126 5.66407C75.123 9.53708 77.3022 13.5371 81.1479 14.8069C81.7247 14.9339 81.7247 15.7593 81.3402 15.8228C81.1479 15.8228 80.9556 15.8863 80.7633 15.9498C80.3788 16.0133 79.9942 16.3307 79.9301 16.7117C79.866 16.9022 79.866 17.0291 79.9301 17.2196C79.9942 17.3466 80.0583 17.5371 80.1224 17.6641C80.2506 17.7911 80.3788 17.918 80.507 17.9815C80.7633 18.045 81.0197 18.1085 81.2761 18.045C86.66 17.5371 90.6339 13.6641 91.2107 8.5847C91.6594 4.45772 89.0956 0.902164 85.1218 0.140259Z" fill="var(--fill-0, #00CCCC)"/>
<path id="Vector_2" d="M98.1329 37.1561V34.553H102.107V31.8863H98.1329V29.3466H102.876V26.6799H95.2487V39.7593H103.068V37.0926H98.1329V37.1561ZM84.1603 37.0926V29.4736H86.2113C88.4546 29.4736 89.6083 31.0609 89.6083 33.2831C89.6083 35.5053 88.4546 37.0926 86.2113 37.0926H84.1603ZM81.212 39.8228H86.3395C89.8647 39.8228 92.6849 37.0926 92.6849 33.2831C92.6849 29.4736 89.8647 26.7434 86.3395 26.7434H81.212V39.8228ZM73.2642 40.0133C76.0844 40.0133 78.3918 38.2355 78.3918 34.8704V26.7434H75.4434V34.8704C75.4434 36.8387 74.2257 37.2831 73.2642 37.2831C72.3028 37.2831 71.085 36.8387 71.085 34.8704V26.7434H68.1367V34.8704C68.1367 38.2355 70.4441 40.0133 73.2642 40.0133ZM65.7652 26.7434H56.6637V29.4101H59.7403V39.8228H62.6886V29.4101H65.7652V26.7434ZM51.3439 39.8228H54.2922V26.7434H51.3439V39.8228ZM48.9724 26.7434H39.935V29.4101H42.9475V39.8228H45.8958V29.4101H48.9724V26.7434ZM31.9873 35.0609L33.6538 30.3625L35.3202 35.0609H31.9873ZM37.1149 39.8228H40.3196L35.2561 26.7434H32.1155L27.052 39.8228H30.2568L31.0259 37.7276H36.4098L37.1149 39.8228ZM18.5915 29.4101H20.1298C21.3476 29.4101 22.1808 29.8545 22.1808 31.2514C22.1808 32.6482 21.2835 33.0926 20.1298 33.0926H18.5915V29.4101ZM22.8218 39.8228H25.8983L22.8859 35.1244C24.3601 34.426 25.2574 32.9022 25.1933 31.3149C25.1933 28.5212 23.2704 26.8069 20.4503 26.8069H15.6432V39.8863H18.5915V35.5688H20.1939L22.8218 39.8228ZM12.8871 32.6482H7.11861V35.0609H10.067C9.74649 36.4577 8.4646 37.4736 6.99042 37.3466C4.74711 37.3466 3.08065 35.7593 3.08065 33.2831C2.95246 31.2514 4.55483 29.4736 6.60586 29.3466C6.73404 29.3466 6.86223 29.3466 6.99042 29.3466C8.27231 29.2831 9.55421 29.918 10.2592 30.9974L12.3744 29.5371C11.2848 27.6323 9.16964 26.4895 6.99042 26.553C3.20884 26.553 0.00411238 29.1561 0.00411238 33.2831C-0.124077 36.9022 2.76018 39.8863 6.47767 40.0133C6.60586 40.0133 6.73404 40.0133 6.86223 40.0133C10.5156 40.0133 13.5922 37.2831 12.8871 32.6482Z" fill="var(--fill-0, #091F48)"/>
</g>
</svg>
