<svg preserveAspectRatio="none" width="100%" height="100%" overflow="visible" style="display: block;" viewBox="0 0 20.8051 17.1434" fill="none" xmlns="http://www.w3.org/2000/svg">
<path id="&#226;&#128;&#156;" d="M16.228 17.1434C14.9519 17.1434 13.8701 16.6718 12.9824 15.7287C12.0947 14.73 11.6509 13.3985 11.6509 11.7341C11.6509 9.34843 12.0115 7.40661 12.7327 5.90865C13.454 4.3552 14.2584 3.13463 15.1461 2.24695C16.1448 1.24831 17.3376 0.499323 18.7246 0L19.5568 1.33153C18.6136 1.77537 17.7814 2.30243 17.0602 2.91272C16.4499 3.46752 15.8674 4.13328 15.3126 4.91001C14.8132 5.63125 14.5636 6.51893 14.5636 7.57306C14.5636 7.96142 14.6191 8.26656 14.73 8.48848C14.7855 8.65492 14.8687 8.76588 14.9797 8.82136C15.0906 8.76588 15.2571 8.7104 15.479 8.65492C15.6454 8.59944 15.8119 8.54396 15.9783 8.48848C16.2002 8.433 16.4222 8.40526 16.6441 8.40526C17.9201 8.40526 18.9188 8.79362 19.64 9.57035C20.4167 10.2916 20.8051 11.2902 20.8051 12.5663C20.8051 13.8423 20.3613 14.9242 19.4736 15.8119C18.5859 16.6996 17.504 17.1434 16.228 17.1434ZM4.57712 17.1434C3.30108 17.1434 2.21921 16.6718 1.33153 15.7287C0.443842 14.73 0 13.3985 0 11.7341C0 9.34843 0.360622 7.40661 1.08187 5.90865C1.80311 4.3552 2.60757 3.13463 3.49526 2.24695C4.4939 1.24831 5.68673 0.499323 7.07373 0L7.90594 1.33153C6.96278 1.77537 6.13057 2.30243 5.40933 2.91272C4.79904 3.46752 4.2165 4.13328 3.6617 4.91001C3.16238 5.63125 2.91271 6.51893 2.91271 7.57306C2.91271 7.96142 2.96819 8.26656 3.07916 8.48848C3.13464 8.65492 3.21786 8.76588 3.32882 8.82136C3.43978 8.76588 3.60622 8.7104 3.82814 8.65492C3.99458 8.59944 4.16102 8.54396 4.32746 8.48848C4.54938 8.433 4.7713 8.40526 4.99322 8.40526C6.26927 8.40526 7.26792 8.79362 7.98916 9.57035C8.76588 10.2916 9.15425 11.2902 9.15425 12.5663C9.15425 13.8423 8.7104 14.9242 7.82272 15.8119C6.93503 16.6996 5.85317 17.1434 4.57712 17.1434Z" fill="var(--fill-0, #D7D7D7)"/>
</svg>
