<svg xmlns="http://www.w3.org/2000/svg" viewBox="0 0 189.41 51.5"><defs><style>.cls-1{fill:#404047;}.cls-2{fill:#313437;}</style></defs><g id="Layer_2" data-name="Layer 2"><g id="Layer_1-2" data-name="Layer 1"><path class="cls-1" d="M75.63,38.56h.73v8.7l0,1.38h-.68Zm4.85,6.2v.66a6.46,6.46,0,0,1-.15,1.49A3,3,0,0,1,79.88,48a1.76,1.76,0,0,1-.72.61,2.12,2.12,0,0,1-1,.21,2.2,2.2,0,0,1-.93-.19,2,2,0,0,1-.69-.54,2.61,2.61,0,0,1-.44-.81,4.54,4.54,0,0,1-.23-1V44.09a4.94,4.94,0,0,1,.25-1.1,2.59,2.59,0,0,1,.45-.84,2,2,0,0,1,.67-.55,2,2,0,0,1,.9-.19,2.32,2.32,0,0,1,1,.19,1.71,1.71,0,0,1,.72.59,2.84,2.84,0,0,1,.45,1A6.83,6.83,0,0,1,80.48,44.76Zm-.73.66v-.66a6.54,6.54,0,0,0-.1-1.17,2.18,2.18,0,0,0-.3-.83,1.34,1.34,0,0,0-.54-.49,1.67,1.67,0,0,0-.78-.16,1.6,1.6,0,0,0-.78.17,1.51,1.51,0,0,0-.53.44,2.22,2.22,0,0,0-.34.6,3.73,3.73,0,0,0-.18.63v2.43a2.78,2.78,0,0,0,.31.83,1.75,1.75,0,0,0,.61.63,2,2,0,0,0,1.69.08,1.41,1.41,0,0,0,.53-.5,2.38,2.38,0,0,0,.31-.82A6.58,6.58,0,0,0,79.75,45.42Zm4.09,2.5,1.82-6.38h.78l-2.5,8.23c0,.16-.12.34-.2.54a2.3,2.3,0,0,1-.32.57,1.56,1.56,0,0,1-.47.45,1.36,1.36,0,0,1-.69.17l-.28,0-.24,0v-.67l.17,0h.16a1.06,1.06,0,0,0,1-.58,2.68,2.68,0,0,0,.3-.7Zm-1.63-6.38L84,47.61l.2.84-.53.33-2.29-7.24Zm13.18,4.74a2.08,2.08,0,0,0-.11-.69,1.4,1.4,0,0,0-.35-.55,2.54,2.54,0,0,0-.66-.46,8.15,8.15,0,0,0-1-.42,9.45,9.45,0,0,1-1.09-.45,3.63,3.63,0,0,1-.83-.55,2.26,2.26,0,0,1-.52-.74,2.48,2.48,0,0,1-.18-1,2.53,2.53,0,0,1,.2-1,2.23,2.23,0,0,1,.56-.79,2.42,2.42,0,0,1,.85-.5A3.16,3.16,0,0,1,93.33,39a2.69,2.69,0,0,1,1.47.39,2.48,2.48,0,0,1,1,1,3.12,3.12,0,0,1,.33,1.44h-.74a2.51,2.51,0,0,0-.24-1.11,1.78,1.78,0,0,0-.68-.76,2,2,0,0,0-1.09-.28,2.21,2.21,0,0,0-1.08.24,1.54,1.54,0,0,0-.65.64,1.71,1.71,0,0,0-.22.87,1.81,1.81,0,0,0,.11.63,1.45,1.45,0,0,0,.34.53,2.93,2.93,0,0,0,.66.46,6.24,6.24,0,0,0,1,.39,6.89,6.89,0,0,1,1.14.47,3.14,3.14,0,0,1,.84.59,2.21,2.21,0,0,1,.51.77,2.67,2.67,0,0,1,.18,1,2.54,2.54,0,0,1-.21,1.06,2.26,2.26,0,0,1-.57.79,2.9,2.9,0,0,1-.88.49,3.6,3.6,0,0,1-1.12.17,3.67,3.67,0,0,1-1.07-.17,2.92,2.92,0,0,1-1-.51,2.45,2.45,0,0,1-.69-.89,2.87,2.87,0,0,1-.26-1.3h.75a2.41,2.41,0,0,0,.2,1,2,2,0,0,0,.52.67,2.34,2.34,0,0,0,.72.37,3.22,3.22,0,0,0,.81.11,2.33,2.33,0,0,0,1.06-.23,1.62,1.62,0,0,0,.7-.62A1.81,1.81,0,0,0,95.39,46.28Zm3-7.72V48.64h-.73V38.56Zm-.16,6.09-.32-.19a4.11,4.11,0,0,1,.2-1.18,3.29,3.29,0,0,1,.5-1,2.31,2.31,0,0,1,.74-.66,1.88,1.88,0,0,1,.94-.24,2,2,0,0,1,.8.15,1.36,1.36,0,0,1,.59.45,1.92,1.92,0,0,1,.38.8,4.71,4.71,0,0,1,.14,1.2v4.63h-.73V44a3.11,3.11,0,0,0-.17-1.14,1.1,1.1,0,0,0-.47-.59,1.49,1.49,0,0,0-.73-.17,1.37,1.37,0,0,0-.8.24,2.2,2.2,0,0,0-.58.63,3.07,3.07,0,0,0-.36.83A3.18,3.18,0,0,0,98.26,44.65Zm9.51,2.72V43.5a1.67,1.67,0,0,0-.17-.8,1,1,0,0,0-.5-.46,2,2,0,0,0-.81-.15,1.67,1.67,0,0,0-.81.19,1.28,1.28,0,0,0-.54.49,1.37,1.37,0,0,0-.19.73H104a1.89,1.89,0,0,1,.17-.78,2,2,0,0,1,.46-.67,2.25,2.25,0,0,1,.72-.47,2.63,2.63,0,0,1,.95-.17,3,3,0,0,1,1.12.2,1.57,1.57,0,0,1,.77.67,2.35,2.35,0,0,1,.28,1.24v3.62a6.78,6.78,0,0,0,.05.77,3.47,3.47,0,0,0,.14.64v.09h-.78a3.58,3.58,0,0,1-.1-.59C107.78,47.81,107.77,47.58,107.77,47.37Zm.15-2.88,0,.63h-1.26a3.08,3.08,0,0,0-.9.11,1.8,1.8,0,0,0-.65.32,1.36,1.36,0,0,0-.39.5,1.67,1.67,0,0,0-.13.65,1.75,1.75,0,0,0,.15.78,1,1,0,0,0,.44.44,1.68,1.68,0,0,0,.7.13,2,2,0,0,0,.95-.21,1.86,1.86,0,0,0,.67-.57,1.79,1.79,0,0,0,.34-.76l.2.45a2.08,2.08,0,0,1-.24.62,2.77,2.77,0,0,1-.46.59,2.41,2.41,0,0,1-.67.43,2.05,2.05,0,0,1-.87.18,2.19,2.19,0,0,1-1-.23,1.57,1.57,0,0,1-.68-.67,2.61,2.61,0,0,1-.07-2,1.91,1.91,0,0,1,.5-.72,2.64,2.64,0,0,1,.84-.48,3.81,3.81,0,0,1,1.18-.17Zm3.3-1.78v5.93h-.73v-7.1h.71Zm2.07-1.21,0,.72-.22,0h-.23a1.44,1.44,0,0,0-.73.18,1.61,1.61,0,0,0-.52.52,2.71,2.71,0,0,0-.33.77,4.53,4.53,0,0,0-.13.93l-.25.12a6.6,6.6,0,0,1,.11-1.29,3.81,3.81,0,0,1,.36-1,2,2,0,0,1,.63-.7,1.55,1.55,0,0,1,.89-.25,1,1,0,0,1,.24,0A.47.47,0,0,1,113.29,41.5Zm3.48,7.28a3.2,3.2,0,0,1-1.09-.19,2.31,2.31,0,0,1-.85-.6,2.68,2.68,0,0,1-.55-1,4.65,4.65,0,0,1-.2-1.43v-.82a4.78,4.78,0,0,1,.21-1.51,2.87,2.87,0,0,1,.57-1,2.12,2.12,0,0,1,.82-.59,2.4,2.4,0,0,1,1-.19,2.51,2.51,0,0,1,1,.19,1.86,1.86,0,0,1,.75.58,2.62,2.62,0,0,1,.45,1,5.55,5.55,0,0,1,.15,1.38v.61h-4.5v-.68h3.77v-.19a3.42,3.42,0,0,0-.2-1.18,1.42,1.42,0,0,0-.53-.74,1.47,1.47,0,0,0-.91-.27,1.86,1.86,0,0,0-.75.15,1.61,1.61,0,0,0-.59.46,2.39,2.39,0,0,0-.37.82,5.35,5.35,0,0,0-.12,1.22v.82a4.15,4.15,0,0,0,.13,1.12,2.36,2.36,0,0,0,.41.79,1.63,1.63,0,0,0,.63.47,2.12,2.12,0,0,0,.81.15,2.27,2.27,0,0,0,1-.19,2,2,0,0,0,.73-.57l.39.49a2.49,2.49,0,0,1-.49.48,2.22,2.22,0,0,1-.69.34A2.91,2.91,0,0,1,116.77,48.78Zm9.78-4.69v3.43a3.31,3.31,0,0,1-.47.49,3.48,3.48,0,0,1-2.33.77,3.33,3.33,0,0,1-1.29-.25,2.73,2.73,0,0,1-1-.74,3.46,3.46,0,0,1-.65-1.2,5.33,5.33,0,0,1-.23-1.66v-2.2a5.68,5.68,0,0,1,.2-1.63,3.36,3.36,0,0,1,.6-1.18,2.54,2.54,0,0,1,1-.72,3.35,3.35,0,0,1,1.3-.24,3.19,3.19,0,0,1,1.52.33,2.3,2.3,0,0,1,1,1,3.52,3.52,0,0,1,.42,1.53h-.76a3.18,3.18,0,0,0-.3-1.14,1.65,1.65,0,0,0-.69-.72,2.3,2.3,0,0,0-1.15-.26,2.47,2.47,0,0,0-1,.2,1.87,1.87,0,0,0-.73.58,2.83,2.83,0,0,0-.43,1,5.75,5.75,0,0,0-.14,1.32v2.21a5,5,0,0,0,.16,1.35,2.86,2.86,0,0,0,.48,1,2.15,2.15,0,0,0,.77.6,2.37,2.37,0,0,0,1,.2,3,3,0,0,0,1-.15,2.52,2.52,0,0,0,.66-.34,2.92,2.92,0,0,0,.37-.31V44.79h-2.1v-.7Zm2.73-1.38v5.93h-.73v-7.1h.71Zm2.07-1.21,0,.72-.22,0h-.23a1.44,1.44,0,0,0-.73.18,1.61,1.61,0,0,0-.52.52,2.71,2.71,0,0,0-.33.77,4.53,4.53,0,0,0-.13.93l-.25.12a6.6,6.6,0,0,1,.11-1.29,3.81,3.81,0,0,1,.36-1,2,2,0,0,1,.63-.7,1.55,1.55,0,0,1,.89-.25,1,1,0,0,1,.24,0A.47.47,0,0,1,131.35,41.5ZM136,47.37V43.5a1.56,1.56,0,0,0-.17-.8,1,1,0,0,0-.49-.46,2,2,0,0,0-.81-.15,1.67,1.67,0,0,0-.81.19,1.28,1.28,0,0,0-.54.49,1.37,1.37,0,0,0-.19.73h-.73a1.88,1.88,0,0,1,.16-.78,2,2,0,0,1,.47-.67,2.25,2.25,0,0,1,.72-.47,2.63,2.63,0,0,1,1-.17,3,3,0,0,1,1.12.2,1.57,1.57,0,0,1,.77.67,2.35,2.35,0,0,1,.28,1.24v3.62a6.78,6.78,0,0,0,.05.77,2.8,2.8,0,0,0,.14.64v.09h-.78a2.76,2.76,0,0,1-.1-.59C136,47.81,136,47.58,136,47.37Zm.16-2.88,0,.63h-1.26a3.08,3.08,0,0,0-.9.11,1.72,1.72,0,0,0-.65.32,1.36,1.36,0,0,0-.39.5,1.51,1.51,0,0,0-.13.65,1.75,1.75,0,0,0,.15.78,1,1,0,0,0,.44.44,1.68,1.68,0,0,0,.7.13,2,2,0,0,0,1-.21,1.86,1.86,0,0,0,.67-.57,1.79,1.79,0,0,0,.34-.76l.2.45a2.08,2.08,0,0,1-.24.62,2.77,2.77,0,0,1-.46.59,2.41,2.41,0,0,1-.67.43,2.05,2.05,0,0,1-.87.18,2.26,2.26,0,0,1-1-.23,1.6,1.6,0,0,1-.67-.67,2.61,2.61,0,0,1-.07-2,1.91,1.91,0,0,1,.5-.72,2.44,2.44,0,0,1,.84-.48,3.79,3.79,0,0,1,1.17-.17Zm4.87-3v.66h-3v-.66Zm-1.94-1.81h.74v7.18a2.05,2.05,0,0,0,.1.74.59.59,0,0,0,.28.33.87.87,0,0,0,.37.08l.28,0,.24,0,0,.67a1.86,1.86,0,0,1-.32.08,2.73,2.73,0,0,1-.41,0,1.3,1.3,0,0,1-.66-.17,1.21,1.21,0,0,1-.48-.59,3,3,0,0,1-.17-1.11Zm4.36,1.81v7.1h-.73v-7.1Zm-.84-2a.6.6,0,0,1,.12-.38.44.44,0,0,1,.36-.16.41.41,0,0,1,.35.16.55.55,0,0,1,.13.38.52.52,0,0,1-.13.37.43.43,0,0,1-.35.15.46.46,0,0,1-.36-.15A.57.57,0,0,1,142.57,39.5Zm5.18,2v.66h-3v-.66Zm-1.94-1.81h.73v7.18a2,2,0,0,0,.11.74.61.61,0,0,0,.27.33,1,1,0,0,0,.37.08l.28,0,.24,0,0,.67a1.65,1.65,0,0,1-.32.08,2.63,2.63,0,0,1-.41,0,1.35,1.35,0,0,1-.66-.17A1.19,1.19,0,0,1,146,48a2.81,2.81,0,0,1-.17-1.11ZM153.15,47V41.54h.72v7.1h-.7Zm.13-1.33h.35a4.86,4.86,0,0,1-.14,1.24,2.71,2.71,0,0,1-.41,1,1.91,1.91,0,0,1-.72.66,2.32,2.32,0,0,1-1.07.23,2.16,2.16,0,0,1-.81-.15,1.55,1.55,0,0,1-.61-.47,2.24,2.24,0,0,1-.4-.82,5,5,0,0,1-.14-1.24V41.54h.73V46.1a3.61,3.61,0,0,0,.1.94,1.65,1.65,0,0,0,.29.61,1.18,1.18,0,0,0,.43.32,1.35,1.35,0,0,0,.5.1,1.67,1.67,0,0,0,1.12-.34,1.71,1.71,0,0,0,.59-.88A3.44,3.44,0,0,0,153.28,45.67Zm6.4,1.59v-8.7h.73V48.64h-.69Zm-4.12-1.84v-.66a6.25,6.25,0,0,1,.16-1.53,3,3,0,0,1,.46-1,1.87,1.87,0,0,1,.73-.59,2.32,2.32,0,0,1,1-.19,2,2,0,0,1,.91.2,1.93,1.93,0,0,1,.67.54,3,3,0,0,1,.44.85,4.72,4.72,0,0,1,.25,1.09V46.2a4.54,4.54,0,0,1-.23,1,2.43,2.43,0,0,1-.45.81,2,2,0,0,1-.67.54,2.28,2.28,0,0,1-.94.19,2.14,2.14,0,0,1-.95-.21,1.9,1.9,0,0,1-.72-.61,3.17,3.17,0,0,1-.46-1.05A5.91,5.91,0,0,1,155.56,45.42Zm.73-.66v.66a6.58,6.58,0,0,0,.1,1.18,2.44,2.44,0,0,0,.32.83,1.38,1.38,0,0,0,.53.49,1.82,1.82,0,0,0,.77.15,1.69,1.69,0,0,0,.93-.23,1.72,1.72,0,0,0,.59-.61,2.75,2.75,0,0,0,.34-.85V44a3.93,3.93,0,0,0-.2-.64,2.19,2.19,0,0,0-.33-.6,1.46,1.46,0,0,0-.54-.44,1.6,1.6,0,0,0-.78-.17,1.73,1.73,0,0,0-.78.16,1.38,1.38,0,0,0-.53.49,2.38,2.38,0,0,0-.32.82A6.58,6.58,0,0,0,156.29,44.76Zm8.43,4a3.2,3.2,0,0,1-1.09-.19,2.31,2.31,0,0,1-.85-.6,2.68,2.68,0,0,1-.55-1,4.65,4.65,0,0,1-.2-1.43v-.82a4.78,4.78,0,0,1,.21-1.51,2.87,2.87,0,0,1,.57-1,2.12,2.12,0,0,1,.82-.59,2.4,2.4,0,0,1,1-.19,2.51,2.51,0,0,1,1,.19,1.86,1.86,0,0,1,.75.58,2.62,2.62,0,0,1,.45,1,5.55,5.55,0,0,1,.15,1.38v.61h-4.5v-.68h3.77v-.19a3.69,3.69,0,0,0-.19-1.18,1.5,1.5,0,0,0-.54-.74,1.47,1.47,0,0,0-.91-.27,1.86,1.86,0,0,0-.75.15,1.61,1.61,0,0,0-.59.46,2.39,2.39,0,0,0-.37.82,5.35,5.35,0,0,0-.12,1.22v.82a4.15,4.15,0,0,0,.13,1.12,2.36,2.36,0,0,0,.41.79,1.8,1.8,0,0,0,.63.47,2.12,2.12,0,0,0,.81.15,2.27,2.27,0,0,0,1-.19,2,2,0,0,0,.73-.57l.39.49a2.49,2.49,0,0,1-.49.48,2.22,2.22,0,0,1-.69.34A2.91,2.91,0,0,1,164.72,48.78Z"/><path class="cls-2" d="M53.28,13.59v4.28H40.42V13.59ZM41.61.87V31.42h-5.1V.87Zm15.66,0V31.42H52.19V.87Zm19.78,0h5.1V22.08a10.67,10.67,0,0,1-1.32,5.65,7.72,7.72,0,0,1-3.52,3.13,12,12,0,0,1-4.91,1,12.28,12.28,0,0,1-5-1,7.49,7.49,0,0,1-3.46-3.13,11.08,11.08,0,0,1-1.26-5.65V.87h5.08V22.08a8.41,8.41,0,0,0,.54,3.38,3.25,3.25,0,0,0,1.6,1.66,6.2,6.2,0,0,0,2.52.46,6,6,0,0,0,2.49-.46,3.17,3.17,0,0,0,1.6-1.66,8,8,0,0,0,.56-3.38Zm12.11,0H93.8l7,22.73,7-22.73h4.3l-9.4,30.55H98.9Zm-1.74,0H91.7l.69,19.45v11.1h-5Zm22.5,0h4.3V31.42h-5V20.32Zm20.94,4.2-7.39,26.35h-5.33L127.84.87h3.31Zm5.9,26.35L129.35,5.07,129,.87h3.38l9.74,30.55Zm.12-11.35v4.28H122.65V20.07ZM166.3.87V31.42h-5L150.52,10.27V31.42h-4.93V.87h4.93l10.87,21.3V.87Zm21,11.31V4.39l-2.06,7.79h-1.13L182,4.37v7.81h-2.14V.87h2.62l2.14,8,2.23-8h2.54V12.18ZM178.6.87v2h-2.31v9.3H174V2.86h-2.39v-2Z"/><path class="cls-2" d="M18.51,18A19.25,19.25,0,0,1,14,21.75c-1.32-2.3-3.13-4-4.58-6.16a5.21,5.21,0,0,1-.85-3.5c.12-.84.61-1.93,1.57-1.93a2,2,0,0,1,1.69,1.09,8.24,8.24,0,0,1,1.69,4A17.89,17.89,0,0,1,14.89,12,5.23,5.23,0,0,1,17.54,9.8a2.44,2.44,0,0,1,2.05.24,3.36,3.36,0,0,1,1,1.33C21.28,13.78,20.08,16.07,18.51,18ZM17.3.27A14.48,14.48,0,0,0,.53,10.77,14.26,14.26,0,0,0,9.82,28.14c1.09.24,1.09,1.81.36,1.93a3.5,3.5,0,0,0-1.08.24,1.94,1.94,0,0,0-1.57,1.45,1.35,1.35,0,0,0,0,1c.12.24.24.6.36.84a3.25,3.25,0,0,0,.72.61,3,3,0,0,0,1.45.12c10.14-1,17.62-8.33,18.71-18C29.61,8.47,24.78,1.71,17.3.27Z"/></g></g></svg>